<?xml version="1.0" encoding="UTF-8"?>
<!DOCTYPE svg PUBLIC "-//W3C//DTD SVG 1.1//EN" "http://www.w3.org/Graphics/SVG/1.1/DTD/svg11.dtd">
<!-- Creator: CorelDRAW 2019 (64-Bit) -->
<svg xmlns="http://www.w3.org/2000/svg" xml:space="preserve" width="29px" height="19px" version="1.1" style="shape-rendering:geometricPrecision; text-rendering:geometricPrecision; image-rendering:optimizeQuality; fill-rule:evenodd; clip-rule:evenodd"
viewBox="0 0 37.82 24.49"
 xmlns:xlink="http://www.w3.org/1999/xlink"
 xmlns:xodm="http://www.corel.com/coreldraw/odm/2003">
 <defs>
  <style type="text/css">
   <![CDATA[
    .fil0 {fill:black}
   ]]>
  </style>
 </defs>
 <g id="Layer_x0020_1">
  <metadata id="CorelCorpID_0Corel-Layer"/>
  <g id="_2631739307056">
   <path class="fil0" d="M10.78 12.48c0,-1.37 0.23,-2.61 0.77,-3.67 3.13,-6.25 11.58,-6.25 14.72,0 1,1.99 1.02,4.85 0.03,6.85 -0.48,0.95 -0.92,1.61 -1.65,2.34 -5.27,5.26 -13.87,1.14 -13.87,-5.52zm-10.78 -0.37c0,1.38 0.44,1.61 1.16,2.46 0.82,0.97 1.72,1.87 2.62,2.77 0.97,0.95 2.63,2.23 3.74,3.05 0.38,0.28 0.75,0.51 1.15,0.78 5.05,3.37 10.79,4.41 16.66,2.01 0.81,-0.34 1.83,-0.81 2.58,-1.26 4.14,-2.5 5.68,-4.05 8.93,-7.54 0.71,-0.77 0.98,-1.18 0.98,-2.27 0,-1.26 -1.3,-2.24 -1.86,-2.94 -0.59,-0.75 -1.7,-1.78 -2.44,-2.44 -0.35,-0.3 -0.65,-0.62 -1.01,-0.91 -1.62,-1.32 -3.32,-2.57 -5.18,-3.54 -0.21,-0.11 -0.4,-0.2 -0.64,-0.32 -0.47,-0.23 -0.89,-0.39 -1.38,-0.61 -0.73,-0.33 -2.1,-0.76 -2.91,-0.93 -2.46,-0.53 -4.42,-0.58 -6.92,-0.01 -2.49,0.57 -3.46,1.13 -5.56,2.19 -0.87,0.45 -2.72,1.71 -3.5,2.33 -1.94,1.55 -4.41,3.79 -5.87,5.73 -0.29,0.39 -0.55,0.81 -0.55,1.45z"/>
   <path class="fil0" d="M13.07 12.04l0 0.44c0,2.92 2.7,5.61 5.62,5.61l0.44 0c2.92,0 5.62,-2.69 5.62,-5.61l0 -0.44c0,-2.92 -2.7,-5.62 -5.62,-5.62 -2.12,0 -3.78,0.8 -4.99,2.47 -0.61,0.84 -1.07,2.02 -1.07,3.15z"/>
  </g>
 </g>
</svg>
