<?xml version="1.0" encoding="UTF-8"?>
<!DOCTYPE svg PUBLIC "-//W3C//DTD SVG 1.1//EN" "http://www.w3.org/Graphics/SVG/1.1/DTD/svg11.dtd">
<!-- Creator: CorelDRAW 2019 (64-Bit) -->
<svg xmlns="http://www.w3.org/2000/svg" xml:space="preserve" width="100px" height="100px" version="1.1" style="shape-rendering:geometricPrecision; text-rendering:geometricPrecision; image-rendering:optimizeQuality; fill-rule:evenodd; clip-rule:evenodd"
viewBox="0 0 131.79 131.79"
 xmlns:xlink="http://www.w3.org/1999/xlink"
 xmlns:xodm="http://www.corel.com/coreldraw/odm/2003">
 <defs>
  <style type="text/css">
   <![CDATA[
    .fil1 {fill:none}
    .fil0 {fill:#B36AF0}
   ]]>
  </style>
 </defs>
 <g id="Layer_x0020_1">
  <metadata id="CorelCorpID_0Corel-Layer"/>
  <g id="_2882501014528">
   <g>
    <path class="fil0" d="M2.42 13.22c0,1.78 1.18,3.52 2.34,4.29 1.96,1.29 3.01,0.91 6.02,0.9 4.62,0 9.24,0 13.85,0 0.58,1.21 1.04,3.59 1.39,4.97l9 36.3c0.84,3.36 1.72,6.87 2.54,10.16 1.91,7.65 2.38,13.56 7.48,18.48 1.76,1.7 5.73,3.96 9.03,3.96l49.91 0c6.1,0 12.37,-5.5 13.97,-12l11.43 -45.99c0,-1.58 -0.88,-3.19 -1.81,-3.97 -2.89,-2.48 -11.48,-1.52 -16.66,-1.52 -24.14,0 -48.28,0 -72.43,0l-3.17 -12.4c-1,-4.02 -1.25,-8.66 -6.93,-8.66l-19.91 0c-3.58,0 -6.05,2.44 -6.05,5.48zm52.55 53.63l0 -0.95c0,-2.41 2.32,-4.75 4.74,-4.75 2.4,0 3.72,0.59 5.01,2.74 1.77,2.96 -0.55,7.58 -4.33,7.58 -2.33,0 -3.8,-0.88 -4.91,-2.82 -0.2,-0.35 -0.51,-1.29 -0.51,-1.8zm59.56 -15.76l0 0.26c-0.03,0.77 -0.3,1.62 -0.44,2.31 -0.87,4.36 -0.65,4.1 -4.31,4.1 0.13,0.47 0.27,0.44 0.55,0.82 2.67,3.61 3.03,8.45 1.13,12.53l-2.51 3.45c-0.36,0.68 -0.12,4.75 -0.12,5.86 0.01,1.23 0.1,1.75 -0.49,2.49 -0.46,0.57 -0.99,1.04 -1.95,1.04 -8.51,0 -9.22,0.95 -9.22,-5.29l-34.74 0c0,1.72 0.33,5.29 -2.58,5.29l-6.65 0c-0.97,0 -1.57,-0.53 -2,-1.12 -0.56,-0.73 -0.44,-1.35 -0.44,-2.54l-0.25 -6c-0.31,-0.4 -0.67,-0.61 -1.28,-1.43 -0.4,-0.53 -0.85,-1.22 -1.14,-1.84 -1.87,-4.01 -1.46,-8.85 1.12,-12.5 0.28,-0.39 0.35,-0.33 0.46,-0.76 -2.47,0 -3.27,0.25 -3.74,-1.95 -0.21,-0.99 -0.87,-4.01 -0.87,-4.83 0,-1.99 2.59,-1.63 3.53,-1.63 1.67,0 3.35,0 5.02,0 0.3,-1.29 2.28,-5.37 3.09,-6.68 2.13,-3.42 3.23,-3.87 6.68,-5.4 0.6,-0.26 1.16,-0.36 1.85,-0.59 5.23,-1.72 10.88,-1.85 16.47,-1.85 5.09,0 13.26,1.2 17.8,4.04 2.71,1.69 4.75,6.06 5.85,8.81 0.2,0.52 0.52,1.17 0.64,1.67 1.03,0 6.86,-0.17 7.56,0.17 0.71,0.34 0.96,0.91 0.98,1.57zm-15.6 10.06c1.92,0 2.88,0.11 4.38,1.6 3.16,3.16 0.7,8.72 -3.43,8.72 -1.05,0 -1.76,-0.05 -2.72,-0.54 -3.64,-1.87 -3.77,-7.15 -0.18,-9.14 0.46,-0.26 1.31,-0.64 1.95,-0.64zm-19.13 -21.03l7.72 0.55c2.67,0.37 7.26,1.35 9.46,3.03 0.56,0.43 1.37,1.77 1.72,2.48l1.36 2.85c0.24,0.5 0.36,0.93 0.57,1.46 0.21,0.51 0.49,1.09 0.61,1.57l-42.88 0c0.3,-1.31 2.92,-7.26 4.18,-8.3 0.64,-0.53 1.95,-1.12 2.76,-1.45 3.43,-1.38 6.86,-1.63 10.45,-2.03 0.64,-0.07 1.36,0.01 2.01,-0.02 0.7,-0.04 1.14,-0.14 2.04,-0.14z"/>
    <path class="fil0" d="M39.35 113.06c0,9.96 11.91,14.6 18.41,7.73 9.34,-9.89 -5.15,-24.55 -15.03,-15.03 -1.81,1.74 -3.38,4.85 -3.38,7.3z"/>
    <path class="fil0" d="M108.02 124.03c6.06,0 10.68,-4.63 10.68,-10.68 0,-9.6 -11.72,-13.84 -18.12,-7.44 -6.39,6.39 -2.15,18.12 7.44,18.12z"/>
   </g>
   <rect class="fil1" width="131.79" height="131.79"/>
  </g>
 </g>
</svg>
