<?xml version="1.0" encoding="UTF-8"?>
<!DOCTYPE svg PUBLIC "-//W3C//DTD SVG 1.1//EN" "http://www.w3.org/Graphics/SVG/1.1/DTD/svg11.dtd">
<!-- Creator: CorelDRAW 2019 (64-Bit) -->
<svg xmlns="http://www.w3.org/2000/svg" xml:space="preserve" width="100px" height="100px" version="1.1" style="shape-rendering:geometricPrecision; text-rendering:geometricPrecision; image-rendering:optimizeQuality; fill-rule:evenodd; clip-rule:evenodd"
viewBox="0 0 32.42 32.42"
 xmlns:xlink="http://www.w3.org/1999/xlink"
 xmlns:xodm="http://www.corel.com/coreldraw/odm/2003">
 <defs>
  <style type="text/css">
   <![CDATA[
    .fil0 {fill:none}
    .fil1 {fill:#999999}
   ]]>
  </style>
 </defs>
 <g id="Layer_x0020_1">
  <metadata id="CorelCorpID_0Corel-Layer"/>
  <g id="_1935384557408">
   <rect class="fil0" width="32.42" height="32.42"/>
   <g>
    <path class="fil1" d="M20.27 27.26l0 -3.21 0.79 0 0 3.33c0,0.16 -0.23,0.33 -0.39,0.33 -0.22,0 -0.4,-0.21 -0.4,-0.45zm10.38 -16.41l0 0.23c-0.03,0.44 -0.19,0.88 -0.47,1.27l-1.8 2.43c-0.61,0.83 -0.85,0.03 -1.47,-0.39l-0.43 0.46c0.1,0.15 0.19,0.15 0.34,0.34 0.11,0.15 0.18,0.21 0.3,0.37 1.19,1.57 1.28,3.51 0.33,5.24 -0.35,0.65 -0.92,0.49 -0.92,-0.02 0,-0.23 0.14,-0.37 0.23,-0.51 0.08,-0.14 0.13,-0.3 0.2,-0.48 0.39,-1 0.28,-2.26 -0.2,-3.19 -0.23,-0.43 -0.55,-0.85 -0.95,-1.11l-0.52 0.55c0.25,0.37 0.54,0.52 0.79,1.01 0.76,1.48 0.11,3.29 -1.3,4.06 -0.27,0.15 -0.18,0.14 -0.25,0.49 -0.04,0.22 -0.1,0.34 -0.14,0.53 0.27,-0.06 0.46,-0.14 0.7,-0.26 0.19,-0.1 1.1,-0.71 1.1,0.09 0,0.63 -1.52,1.05 -2.07,1.14 -0.84,0.16 -0.39,0.13 -1.03,0.5 -0.27,0.15 -0.75,0.36 -1.13,0.39 0,0.96 0,1.92 0,2.88 0.01,0.55 -0.01,0.88 -0.27,1.19 -0.62,0.77 -1.7,0.67 -2.21,-0.29l-0.62 0c-0.18,0.79 -1.23,1.04 -1.98,0.51 -0.18,-0.13 -0.27,-0.26 -0.33,-0.51l-0.68 0c-0.05,0.23 -0.19,0.41 -0.37,0.53 -0.69,0.48 -1.75,0.28 -1.94,-0.53l-0.62 0c-0.63,1.18 -2.04,0.97 -2.41,-0.07 -0.17,-0.5 -0.07,-1.31 -0.07,-1.9 -1.01,-0.49 -1.72,-0.98 -2.14,-2.1 -0.32,-0.85 -0.06,-0.5 -0.87,-0.82 -2.49,-0.97 -4,-3.91 -2.64,-6.56 0.49,-0.95 0.92,-1.17 1.15,-1.48l-0.47 -0.44c-0.61,0.41 -0.84,1.21 -1.45,0.38l-1.08 -1.46c-0.46,-0.61 -1.19,-1.33 -1.19,-2.19 0,-1.19 0.56,-1.56 1.33,-2.33l1.88 -1.91c0.16,-0.16 0.43,-0.55 0.68,-0.55 0.33,0 0.51,0.17 0.51,0.5 0,0.19 -2.35,2.43 -2.53,2.61 -0.37,0.38 -0.99,0.86 -1.02,1.52 -0.02,0.6 0.63,1.23 0.9,1.63 0.39,-0.27 4.73,-4.71 5.29,-5.26 0.22,-0.23 1.63,-1.51 1.7,-1.79 -0.25,-0.07 -0.53,-0.35 -0.74,-0.5 -1.49,-1.14 -2.25,0.95 -2.75,0.95 -0.34,0 -0.51,-0.18 -0.51,-0.51 0,-0.2 0.77,-0.86 0.94,-1.03 0.8,-0.81 1.96,-0.79 2.85,-0.11 0.34,0.25 2.75,1.93 2.75,2.16 0,0.57 -0.43,0.61 -0.73,1.07 0.23,0.34 1.1,1.13 1.45,1.48 1.69,1.68 0.85,1.39 3.4,1.39 0.19,0 2.85,-2.75 2.93,-2.87 -0.3,-0.46 -0.73,-0.5 -0.73,-1.07 0,-0.23 2.41,-1.91 2.75,-2.16 0.25,-0.2 0.73,-0.5 1.14,-0.5 1.12,0 1.42,0.28 2.07,0.98l2.19 2.16c0.89,0.76 1.83,1.74 2.61,2.63 0.33,0.37 0.49,0.8 0.52,1.23zm-18.9 16.86c-0.56,0 -0.39,-0.88 -0.39,-1.69 0.46,0 0.4,0.04 0.79,-0.05 0,0.73 0.15,1.74 -0.4,1.74zm5.53 -0.56l0 -3.1 0.79 0 0 3.27c0,0.24 -0.17,0.39 -0.39,0.39 -0.29,0 -0.4,-0.26 -0.4,-0.56zm-2.54 0.56c-0.22,0 -0.39,-0.15 -0.39,-0.39l0 -2.37c0,-0.17 0.65,-0.75 0.79,-0.85 0,0.66 0,1.32 0,1.98 0,0.56 0.17,1.63 -0.4,1.63zm4.23 -3.66l0.46 0 0 2.82 -0.46 0 0 -2.82zm-2.99 0l0.46 0 0 2.82 -0.46 0 0 -2.82zm-2.99 1.69c0.2,-0.05 0.3,-0.09 0.46,-0.17l0 1.3 -0.46 0 0 -1.13zm5.41 -4.86c0.01,0.51 0.14,0.96 0.29,1.31 0.19,0.43 0.38,0.6 0.62,0.96l-3.16 0 2.25 -2.27zm-6.59 4.24c-1.33,0 -2.13,-0.58 -2.63,-1.65 -0.77,-1.63 0.4,-3.82 2.57,-3.82 1.48,0 2.66,1.27 2.7,2.71 0.02,0.66 -0.32,1.47 -0.76,1.93 -0.46,0.48 -1.17,0.83 -1.88,0.83zm7.5 -4.06c0,-0.72 0.11,-1.15 0.61,-1.65 0.9,-0.91 2.28,-0.91 3.19,0 1.3,1.31 0.42,3.74 -1.6,3.74 -1.22,0 -2.2,-1.03 -2.2,-2.09zm-12.41 -2.54c0,-1.24 0.54,-1.41 0.85,-1.86 0.78,0.52 0.78,1.02 1.08,1.91l0.35 1.11c0.01,0.22 -0.3,0.33 -0.59,0.87 -0.25,-0.12 -0.74,-0.18 -1.16,-0.69 -0.25,-0.3 -0.53,-0.81 -0.53,-1.34zm16.7 0.11c0,-0.15 0.12,-0.44 0.16,-0.57 0.07,-0.19 0.11,-0.39 0.17,-0.56 0.13,-0.4 0.48,-0.54 0.68,-0.84 1.56,1.04 0.81,3.34 -0.11,3.55 -0.07,-0.82 -0.9,-1.53 -0.9,-1.58zm-8.29 4.01c0,-0.93 -0.11,-1.52 -0.59,-2.24 -0.41,-0.61 -0.89,-0.99 -1.56,-1.32 -0.36,-0.18 -1.03,-0.33 -1.58,-0.33 0.16,-0.24 1.3,-1.33 1.65,-1.68 0.19,-0.18 0.35,-0.45 0.61,-0.52 0,1.96 2.77,2.96 4.13,1.42 0.36,-0.4 0.67,-1.03 0.67,-1.76 0.15,0.1 2.18,1.5 2.31,1.69 -0.31,0.03 -0.74,0.21 -0.96,0.34 -0.58,0.34 -0.87,0.76 -1.37,1.23 -0.14,0.12 -0.2,0.14 -0.34,0.28l-2.28 2.28c-0.19,0.19 -0.44,0.54 -0.69,0.61zm-0.62 -6.21c0,-2.19 3.04,-2.19 3.04,0 0,0.72 -0.69,1.41 -1.52,1.41 -0.78,0 -1.52,-0.65 -1.52,-1.41zm-8.69 1.92c0,1.46 1.03,2.72 2.2,2.99 -0.01,0.3 -0.11,0.46 -0.11,0.79 -0.64,-0.01 -1.56,-0.74 -1.99,-1.23 -1.43,-1.61 -1.03,-4.38 0.52,-5.43l0.52 0.56c-0.23,0.33 -0.4,0.3 -0.76,0.95 -0.17,0.29 -0.38,0.95 -0.38,1.37zm3.89 0.73c-0.02,-0.25 -0.45,-1.4 -0.56,-1.86 0.19,-0.29 4.41,-4.44 5.12,-5.14 0.92,-0.93 0.31,-0.72 2.72,-0.72 0.2,0 2.79,2.7 2.97,2.89 0.44,0.43 2.77,2.71 2.95,2.97 -0.04,0.16 -0.22,0.78 -0.28,0.91 -0.13,-0.09 -0.25,-0.2 -0.39,-0.3l-4.32 -3.12c-0.84,-0.61 -1.75,-1.19 -3.02,-0.53 -0.32,0.17 -0.55,0.4 -0.8,0.66 -0.25,0.25 -0.46,0.46 -0.71,0.7 -0.13,0.14 -0.23,0.25 -0.36,0.37 -0.16,0.14 -0.24,0.18 -0.4,0.34l-2.92 2.83zm13.82 -5.3l-0.39 -0.05 -0.06 -0.4c0,-0.21 1.07,-1.09 1.24,-1.35l0.55 0.52c-0.07,0.11 -1.17,1.28 -1.34,1.28zm-16.36 -1.3l0.56 -0.52c0.32,0.47 1.25,1.03 1.25,1.48 0,0.16 -0.03,0.16 -0.06,0.29 -0.58,0.13 -0.47,0.06 -1.08,-0.55 -0.23,-0.23 -0.5,-0.45 -0.67,-0.7zm13.82 -1.24c-0.31,0 -0.53,-0.1 -0.47,-0.42 0.04,-0.22 1.17,-1.28 1.32,-1.38l0.49 0.52c-0.07,0.12 -1.17,1.28 -1.34,1.28zm-11.28 -1.29l0.52 -0.5c0.24,0.15 0.64,0.61 0.88,0.85 0.13,0.13 0.36,0.3 0.42,0.48 0.08,0.27 -0.06,0.46 -0.46,0.46 -0.18,0 -0.56,-0.47 -0.7,-0.6 -0.22,-0.22 -0.49,-0.45 -0.66,-0.69zm9.93 0.84c0,0.83 0.53,1.36 1.3,1.36 0.87,0 1.44,-1.14 2.03,-1.53l0.74 0.72c-0.57,0.85 -1.53,1.09 -1.53,2.16 0,0.62 0.54,1.18 1.3,1.18 0.88,0 1.44,-1.12 2.03,-1.52l0.6 0.58 -2.68 2.71 -5.55 -5.53 2.68 -2.71 0.62 0.59c-0.5,0.73 -1.54,1.19 -1.54,1.99zm-8.74 -1.97l0.57 -0.61 2.71 2.68 -5.53 5.56 -2.73 -2.71 0.62 -0.59c0.72,0.49 1.07,1.53 2.16,1.53 0.6,0 1.18,-0.55 1.18,-1.24 0,-0.62 -0.32,-0.85 -0.63,-1.17 -0.25,-0.24 -0.72,-0.66 -0.89,-0.91l0.72 -0.75c0.6,0.4 1.17,1.54 2.04,1.54 0.77,0 1.3,-0.53 1.3,-1.36 0,-0.54 -0.38,-0.8 -0.66,-1.08 -0.24,-0.24 -0.7,-0.64 -0.86,-0.89zm9.4 -2.13c0.1,-0.14 0.54,-0.48 0.69,-0.52l7.18 7.15c-0.1,0.18 -0.39,0.59 -0.52,0.69l-7.35 -7.32zm-15.88 7.33c-0.14,-0.11 -0.43,-0.52 -0.52,-0.69l7.15 -7.18c0.17,0.06 0.24,0.14 0.36,0.23 0.13,0.1 0.25,0.16 0.33,0.29l-7.32 7.35zm17.31 -8.47c0.67,-0.18 1.28,-1.69 2.78,-0.19l3.77 3.78c0.3,0.3 0.7,0.65 0.96,0.97 0.88,1.08 0,1.71 -0.52,2.49 -0.25,-0.17 -4.81,-4.79 -5.26,-5.23 -0.3,-0.31 -0.57,-0.57 -0.87,-0.88l-0.68 -0.67c-0.21,-0.21 -0.15,-0.21 -0.18,-0.27z"/>
    <path class="fil1" d="M11.3 22.47c0,-0.68 0.79,-0.68 0.79,0 0,0.4 -0.79,0.45 -0.79,0zm-0.9 -0.11c0,1.75 2.59,1.73 2.59,0 0,-1.64 -2.59,-1.64 -2.59,0z"/>
    <path class="fil1" d="M21.12 20.95c0,-0.58 0.79,-0.58 0.79,0 0,0.54 -0.79,0.54 -0.79,0zm-0.91 0c0,0.39 0.2,0.7 0.4,0.9 0.52,0.53 1.28,0.49 1.81,0.01 0.73,-0.66 0.42,-2.21 -0.96,-2.21 -0.68,0 -1.25,0.62 -1.25,1.3z"/>
   </g>
  </g>
 </g>
</svg>
