<?xml version="1.0" encoding="UTF-8"?>
<!DOCTYPE svg PUBLIC "-//W3C//DTD SVG 1.1//EN" "http://www.w3.org/Graphics/SVG/1.1/DTD/svg11.dtd">
<!-- Creator: CorelDRAW 2019 (64-Bit) -->
<svg xmlns="http://www.w3.org/2000/svg" xml:space="preserve" width="100px" height="100px" version="1.1" style="shape-rendering:geometricPrecision; text-rendering:geometricPrecision; image-rendering:optimizeQuality; fill-rule:evenodd; clip-rule:evenodd"
viewBox="0 0 20812.45 20812.45"
 xmlns:xlink="http://www.w3.org/1999/xlink"
 xmlns:xodm="http://www.corel.com/coreldraw/odm/2003">
 <defs>
  <style type="text/css">
   <![CDATA[
    .fil0 {fill:none}
    .fil1 {fill:#999999}
   ]]>
  </style>
 </defs>
 <g id="Layer_x0020_1">
  <metadata id="CorelCorpID_0Corel-Layer"/>
  <g id="_1935336867728">
   <rect class="fil0" width="20812.45" height="20812.45"/>
   <g>
    <path class="fil1" d="M9060.93 3761.3c0,851.36 1078.14,118.25 1782.53,-86.4 516.74,-150.11 1001.52,-276.99 1643.83,-276.99 0,589.59 -122.23,1193.98 415.33,1193.98 537.6,0 415.32,-604.39 415.32,-1193.98 1291.11,0 2832.74,626.51 3820.19,1371.28 158,119.15 281.59,237.92 436.82,341.9 -317.58,474.21 -674.85,403.19 -674.85,986.35 0,275.26 323.28,311.5 519.15,311.5 164.33,0 609.25,-561.4 778.71,-674.89 192.42,287.34 414.75,530.39 613.02,840.53 584.78,914.8 1100.16,2237.76 1100.16,3416.48 -589.64,0 -1194.04,-122.28 -1194.04,415.32 0,537.61 604.4,415.33 1194.04,415.33 0,869.4 -285.15,1776.56 -555.86,2403.29 -473.9,1097.18 -687.24,1151.62 -1157.32,1853.71 -474.27,-317.57 -403.24,-674.89 -986.4,-674.89 -275.21,0 -311.46,323.27 -311.46,519.14 0,164.33 561.35,609.26 674.85,778.71 -744.77,498.75 -798.28,684.1 -1817.58,1141.58 -575.41,258.21 -1615.58,571.6 -2439.43,571.6 0,-589.64 122.28,-1194.03 -415.32,-1194.03 -537.56,0 -415.33,604.39 -415.33,1194.03 -1580.49,0 -2701.57,-778.71 -3011.03,-778.71 -251.1,0 -415.33,164.17 -415.33,415.32 0,356.54 364.96,445.04 622.23,571.81 2338.02,1152.41 5669.77,781.8 7728.71,-734.88 182.17,-134.15 369.98,-244.09 538.71,-395.76 184.72,-166.06 344.45,-289.44 520.18,-466.22 326.15,-328.03 602.04,-670.45 877.41,-1043.46 1916.95,-2596.65 1899.21,-6475.47 43.67,-9093.04 -1970.66,-2779.92 -5350.73,-4029.92 -8803.5,-3041.27 -308.79,88.44 -601.47,194.09 -870.51,323.59 -276.46,133.1 -656.9,233.1 -656.9,589.07z"/>
    <path class="fil1" d="M12072.02 10406.38c0,-1033.63 1661.24,-1033.63 1661.24,0 0,1033.63 -1661.24,1033.63 -1661.24,0zm1661.24 -1453.61c-490.74,-114.33 -889.01,-361.87 -1645.86,15.38 -252.1,125.68 -402.1,256.9 -566.32,471.97 -382.06,500.31 -362.82,1299.32 -72.07,1848.79 -924.01,618.78 -193.26,1217.47 214.8,945.5 146.39,-97.54 240.16,-261.92 408.21,-374.42 175.57,40.9 179.08,79.92 392.62,126.78 1121.6,245.92 2099.27,-518.26 2099.27,-1372.75 0,-475.16 27.04,-646.66 -207.69,-1090.17 106.38,-71.23 2180.44,-2067.89 2180.44,-2232.38 0,-458.36 -60.77,-519.14 -519.14,-519.14 -213.18,0 -1854.08,1892.37 -2284.26,2180.44z"/>
    <path class="fil1" d="M27.77 10406.38c0,251.1 164.18,415.33 415.33,415.33l8306.38 0c557.21,0 557.21,-830.65 0,-830.65l-8306.38 0c-251.15,0 -415.33,164.17 -415.33,415.32z"/>
    <path class="fil1" d="M2519.67 7914.44c0,251.15 164.22,415.32 415.32,415.32l6385.51 0c557.27,0 557.27,-830.6 0,-830.6l-6385.51 0c-251.1,0 -415.32,164.18 -415.32,415.28z"/>
    <path class="fil1" d="M2519.67 12898.27c0,251.15 164.22,415.33 415.32,415.33l6385.51 0c557.27,0 557.27,-830.65 0,-830.65l-6385.51 0c-251.1,0 -415.32,164.23 -415.32,415.32z"/>
    <path class="fil1" d="M5011.61 5422.54c0,251.15 164.17,415.33 415.27,415.33l4568.52 0c434.2,0 434.2,-830.65 0,-830.65l-4568.52 0c-251.1,0 -415.27,164.22 -415.27,415.32z"/>
    <path class="fil1" d="M5011.61 15390.17c0,251.15 164.17,415.32 415.27,415.32l4568.52 0c434.2,0 434.2,-830.65 0,-830.65l-4568.52 0c-251.1,0 -415.27,164.23 -415.27,415.33z"/>
   </g>
  </g>
 </g>
</svg>
