<?xml version="1.0" encoding="UTF-8"?>
<!DOCTYPE svg PUBLIC "-//W3C//DTD SVG 1.1//EN" "http://www.w3.org/Graphics/SVG/1.1/DTD/svg11.dtd">
<!-- Creator: CorelDRAW 2019 (64-Bit) -->
<svg xmlns="http://www.w3.org/2000/svg" xml:space="preserve" width="100px" height="100px" version="1.1" style="shape-rendering:geometricPrecision; text-rendering:geometricPrecision; image-rendering:optimizeQuality; fill-rule:evenodd; clip-rule:evenodd"
viewBox="0 0 45.09 45.09"
 xmlns:xlink="http://www.w3.org/1999/xlink"
 xmlns:xodm="http://www.corel.com/coreldraw/odm/2003">
 <defs>
  <style type="text/css">
   <![CDATA[
    .fil0 {fill:none}
    .fil1 {fill:#999999}
   ]]>
  </style>
 </defs>
 <g id="Layer_x0020_1">
  <metadata id="CorelCorpID_0Corel-Layer"/>
  <g id="_1935327715168">
   <rect class="fil0" width="45.09" height="45.09"/>
   <path id="number-of-seats.svg" class="fil1" d="M38.49 29.26c-1.99,-0.81 -4.07,-1.46 -6.2,-1.96 -0.32,-3.81 -1.92,-7.25 -4.4,-9.31l4.97 -4.89c0.12,-0.11 0.18,-0.23 0.18,-0.41 0,-0.18 -0.06,-0.3 -0.18,-0.42l-1.69 -1.66c-0.25,-0.24 -0.61,-0.24 -0.85,0l-5.26 5.18c-0.04,-0.16 -0.06,-0.32 -0.06,-0.49l0 -1.01c1.45,-0.83 2.42,-2.37 2.42,-4.1 0,-0.02 0,-0.04 0,-0.06 0,-0.01 0,-0.03 0,-0.05 0,-2.62 -2.18,-4.76 -4.84,-4.76 -2.66,0 -4.84,2.14 -4.84,4.76 0,0.02 0,0.04 0,0.05 0,0.02 0,0.04 0,0.06 0,1.67 0.97,3.27 2.42,4.1l0 1.01c0,0.66 -0.43,1.31 -1.09,1.61 -3.4,1.67 -5.78,5.68 -6.14,10.31 -2.23,0.52 -4.35,1.24 -6.32,2.1 -0.18,0.06 -0.36,0.24 -0.36,0.47 0,0.24 0.06,0.42 0.24,0.54l2.42 1.6c0.18,0.12 0.36,0.12 0.54,0.06 1.19,-0.39 2.34,-0.73 3.46,-1.02 0.08,3.34 0.73,6.34 1.86,8.5 0.13,0.18 0.31,0.3 0.55,0.3l3.02 0c0.18,0 0.49,-0.12 0.55,-0.3 0.06,-0.18 0.12,-0.41 0,-0.59 -0.73,-1.37 -1.09,-3.33 -1.15,-5.76 3.14,-0.6 6.59,-0.6 9.68,0 -0.06,2.43 -0.43,4.39 -1.15,5.76 -0.12,0.18 -0.12,0.41 0,0.59 0.12,0.18 0.36,0.3 0.54,0.3l3.03 0c0.24,0 0.42,-0.12 0.48,-0.3 1.13,-2.17 1.79,-5.17 1.87,-8.52 1.14,0.29 2.31,0.64 3.51,1.04 0.06,0.06 0.12,0.06 0.19,0.06 0.12,0 0.24,-0.06 0.3,-0.18l2.42 -1.6c0.18,-0.12 0.24,-0.3 0.24,-0.54 0,-0.17 -0.18,-0.41 -0.36,-0.47zm-7.5 -2.26c-2.48,-0.51 -5.01,-0.8 -7.5,-0.87 -1.28,-0.04 -2.55,-0.03 -3.81,0.03l7.37 -7.24c2.18,1.79 3.63,4.76 3.94,8.08zm-9.97 -13.71c-0.01,0 -0.01,-0.01 -0.01,-0.01 -0.07,-0.03 -0.14,-0.06 -0.2,-0.1 -1.01,-0.55 -1.72,-1.56 -1.84,-2.74 0,0 0,0 0,-0.01 -0.01,-0.05 -0.01,-0.1 -0.01,-0.15 -0.01,-0.01 -0.01,-0.03 -0.01,-0.04 0,-0.05 0,-0.11 0,-0.16 0,-1.96 1.63,-3.57 3.63,-3.57 1.99,0 3.63,1.61 3.57,3.57 0,1.36 -0.79,2.61 -2.06,3.2 -0.06,0.03 -0.11,0.06 -0.15,0.1 -0.42,0.16 -0.88,0.26 -1.36,0.26 -0.56,0 -1.09,-0.13 -1.56,-0.35zm-1.41 4.57c1.09,-0.54 1.76,-1.55 1.76,-2.68l0 -0.5c0.38,0.09 0.79,0.15 1.21,0.15 0.39,0 0.78,-0.05 1.15,-0.14l0 0.49c0,0.48 0.18,1.01 0.42,1.43l-9.92 9.74c0.54,-3.86 2.6,-7.13 5.38,-8.49zm9.86 20.72l-1.75 0c0.6,-1.54 0.91,-3.56 0.91,-5.94 0,-0.29 -0.19,-0.53 -0.49,-0.59 -3.51,-0.77 -7.56,-0.77 -11.13,0 -0.3,0.06 -0.48,0.3 -0.48,0.59 0,2.38 0.3,4.4 0.91,5.94l-1.76 0c-0.97,-2.02 -1.51,-4.75 -1.57,-7.84 0.24,-0.06 0.42,-0.12 0.66,-0.18 5.27,-1.12 9.99,-1.12 15.19,-0.05 0.36,0.05 0.72,0.17 1.09,0.23 -0.06,3.09 -0.61,5.82 -1.58,7.84zm6.35 -7.78c-4.28,-1.37 -8.09,-2.14 -11.85,-2.29 -3.12,-0.14 -6.2,0.15 -9.5,0.87 -0.36,0.12 -0.78,0.18 -1.15,0.29 -0.01,0.01 -0.02,0.01 -0.03,0.02 -1.26,0.31 -2.55,0.68 -3.9,1.11l-1.27 -0.83c1.7,-0.72 3.6,-1.29 5.52,-1.7 0.02,0.01 0.03,0.02 0.05,0.04 0.06,-0.06 0.12,-0.06 0.18,-0.06 0.01,-0.01 0.02,-0.02 0.04,-0.03 0.04,-0.01 0.09,-0.02 0.14,-0.03 0.12,-0.06 0.24,-0.12 0.3,-0.18l11.01 -10.75c0.06,-0.06 0.1,-0.12 0.13,-0.19l5.25 -5.15 0.85 0.83 -14.03 13.78c-0.18,0.17 -0.24,0.41 -0.12,0.65 0.12,0.24 0.36,0.36 0.6,0.36 0.01,-0.01 0.02,-0.01 0.03,-0.01 0.01,0 0.02,0.01 0.03,0.01 2.62,-0.25 5.33,-0.27 8.01,-0.03 1.57,0.15 3.13,0.38 4.67,0.69 0.25,0.06 0.5,0.11 0.75,0.17l0.02 0c1.87,0.41 3.71,0.95 5.48,1.6l-1.21 0.83z"/>
  </g>
 </g>
</svg>
