<?xml version="1.0" encoding="UTF-8"?>
<!DOCTYPE svg PUBLIC "-//W3C//DTD SVG 1.1//EN" "http://www.w3.org/Graphics/SVG/1.1/DTD/svg11.dtd">
<!-- Creator: CorelDRAW -->
<svg xmlns="http://www.w3.org/2000/svg" xml:space="preserve" width="100px" height="100px" version="1.1" style="shape-rendering:geometricPrecision; text-rendering:geometricPrecision; image-rendering:optimizeQuality; fill-rule:evenodd; clip-rule:evenodd"
viewBox="0 0 116.31 116.31"
 xmlns:xlink="http://www.w3.org/1999/xlink"
 xmlns:xodm="http://www.corel.com/coreldraw/odm/2003">
 <defs>
  <style type="text/css">
   <![CDATA[
    .fil1 {fill:none}
    .fil0 {fill:white}
   ]]>
  </style>
 </defs>
 <g id="Слой_x0020_1">
  <metadata id="CorelCorpID_0Corel-Layer"/>
  <g id="_2571721261696">
   <path class="fil0" d="M14.49 101.83c0,-3.67 1.23,-9.77 1.69,-13.58 0.44,-3.64 0.45,-2.87 2.55,-4.98l19.26 -19.25c5.14,-5.15 10.13,-10.13 15.27,-15.28 3.26,-3.26 12.46,-13.33 15.44,-15.32l14.25 14.36c-3.02,2.03 -12.14,12.03 -15.38,15.27 -5.15,5.14 -10.13,10.13 -15.28,15.27l-19.03 19.04c-2.06,2.06 -1.48,2.33 -5,2.75 -3.92,0.47 -10.04,1.72 -13.77,1.72zm61.9 -76.1l10.76 -10.87 14.3 14.2 -10.76 10.86 -14.3 -14.19zm-73.31 79.97c0,3.9 3.18,7.53 7.53,7.53 5.55,0 15.1,-1.76 20.7,-2.54 4.69,-0.65 5.07,-1.18 7.75,-3.86 1.99,-1.99 3.82,-3.82 5.81,-5.81l46.47 -46.47c3.92,-3.92 7.69,-7.69 11.62,-11.61 2.74,-2.74 10.27,-8.6 10.27,-13.18l0 -1.29c0,-4.61 -8.41,-11.32 -11.24,-14.15 -2.83,-2.83 -9.54,-11.24 -14.15,-11.24l-1.29 0c-4.57,0 -10.34,7.44 -13.07,10.17l-58.08 58.08c-3.77,3.78 -8.95,6.94 -9.74,13.5 -0.72,6.06 -2.58,14.92 -2.58,20.87z"/>
   <rect class="fil1" width="116.31" height="116.31"/>
  </g>
 </g>
</svg>
