<?xml version="1.0" encoding="UTF-8"?>
<!DOCTYPE svg PUBLIC "-//W3C//DTD SVG 1.1//EN" "http://www.w3.org/Graphics/SVG/1.1/DTD/svg11.dtd">
<!-- Creator: CorelDRAW 2019 (64-Bit) -->
<svg xmlns="http://www.w3.org/2000/svg" xml:space="preserve" width="150px" height="150px" version="1.1" style="shape-rendering:geometricPrecision; text-rendering:geometricPrecision; image-rendering:optimizeQuality; fill-rule:evenodd; clip-rule:evenodd"
viewBox="0 0 87.56 87.63"
 xmlns:xlink="http://www.w3.org/1999/xlink"
 xmlns:xodm="http://www.corel.com/coreldraw/odm/2003">
 <defs>
  <style type="text/css">
   <![CDATA[
    .fil0 {fill:white}
   ]]>
  </style>
   <mask id="id0">
    <path fill="white" d="M43.78 43.82 L-18.16 42.87 L-18.17 43.63 L43.78 43.82"/>
    <path fill="black" d="M43.78 43.82 L105.72 44.76 L105.73 44 L43.78 43.82"/>
    <path fill="#FEFEFE" d="M43.78 43.82 L-18.17 43.63 L-18.17 44.4 L43.78 43.82"/>
    <path fill="#010101" d="M43.78 43.82 L105.73 44 L105.73 43.24 L43.78 43.82"/>
    <path fill="#FDFDFD" d="M43.78 43.82 L-18.17 44.4 L-18.15 45.16 L43.78 43.82"/>
    <path fill="#020202" d="M43.78 43.82 L105.73 43.24 L105.72 42.47 L43.78 43.82"/>
    <path fill="#FCFCFC" d="M43.78 43.82 L-18.15 45.16 L-18.13 45.92 L43.78 43.82"/>
    <path fill="#030303" d="M43.78 43.82 L105.72 42.47 L105.69 41.71 L43.78 43.82"/>
    <path fill="#FBFBFB" d="M43.78 43.82 L-18.13 45.92 L-18.1 46.68 L43.78 43.82"/>
    <path fill="#040404" d="M43.78 43.82 L105.69 41.71 L105.66 40.95 L43.78 43.82"/>
    <path fill="#FAFAFA" d="M43.78 43.82 L-18.1 46.68 L-18.06 47.45 L43.78 43.82"/>
    <path fill="#050505" d="M43.78 43.82 L105.66 40.95 L105.62 40.19 L43.78 43.82"/>
    <path fill="#F9F9F9" d="M43.78 43.82 L-18.06 47.45 L-18.01 48.21 L43.78 43.82"/>
    <path fill="#060606" d="M43.78 43.82 L105.62 40.19 L105.57 39.42 L43.78 43.82"/>
    <path fill="#F8F8F8" d="M43.78 43.82 L-18.01 48.21 L-17.95 48.97 L43.78 43.82"/>
    <path fill="#070707" d="M43.78 43.82 L105.57 39.42 L105.52 38.66 L43.78 43.82"/>
    <path fill="#F7F7F7" d="M43.78 43.82 L-17.95 48.97 L-17.89 49.73 L43.78 43.82"/>
    <path fill="#080808" d="M43.78 43.82 L105.52 38.66 L105.45 37.9 L43.78 43.82"/>
    <path fill="#F6F6F6" d="M43.78 43.82 L-17.89 49.73 L-17.81 50.49 L43.78 43.82"/>
    <path fill="#090909" d="M43.78 43.82 L105.45 37.9 L105.37 37.14 L43.78 43.82"/>
    <path fill="whitesmoke" d="M43.78 43.82 L-17.81 50.49 L-17.72 51.25 L43.78 43.82"/>
    <path fill="#0A0A0A" d="M43.78 43.82 L105.37 37.14 L105.28 36.39 L43.78 43.82"/>
    <path fill="#F4F4F4" d="M43.78 43.82 L-17.72 51.25 L-17.62 52 L43.78 43.82"/>
    <path fill="#0B0B0B" d="M43.78 43.82 L105.28 36.39 L105.19 35.63 L43.78 43.82"/>
    <path fill="#F3F3F3" d="M43.78 43.82 L-17.62 52 L-17.52 52.76 L43.78 43.82"/>
    <path fill="#0C0C0C" d="M43.78 43.82 L105.19 35.63 L105.08 34.87 L43.78 43.82"/>
    <path fill="#F2F2F2" d="M43.78 43.82 L-17.52 52.76 L-17.4 53.51 L43.78 43.82"/>
    <path fill="#0D0D0D" d="M43.78 43.82 L105.08 34.87 L104.97 34.12 L43.78 43.82"/>
    <path fill="#F1F1F1" d="M43.78 43.82 L-17.4 53.51 L-17.28 54.27 L43.78 43.82"/>
    <path fill="#0E0E0E" d="M43.78 43.82 L104.97 34.12 L104.84 33.37 L43.78 43.82"/>
    <path fill="#F0F0F0" d="M43.78 43.82 L-17.28 54.27 L-17.15 55.02 L43.78 43.82"/>
    <path fill="#0F0F0F" d="M43.78 43.82 L104.84 33.37 L104.71 32.61 L43.78 43.82"/>
    <path fill="#EFEFEF" d="M43.78 43.82 L-17.15 55.02 L-17 55.77 L43.78 43.82"/>
    <path fill="#101010" d="M43.78 43.82 L104.71 32.61 L104.57 31.86 L43.78 43.82"/>
    <path fill="#EEEEEE" d="M43.78 43.82 L-17 55.77 L-16.85 56.52 L43.78 43.82"/>
    <path fill="#111111" d="M43.78 43.82 L104.57 31.86 L104.41 31.12 L43.78 43.82"/>
    <path fill="#EDEDED" d="M43.78 43.82 L-16.85 56.52 L-16.69 57.26 L43.78 43.82"/>
    <path fill="#121212" d="M43.78 43.82 L104.41 31.12 L104.25 30.37 L43.78 43.82"/>
    <path fill="#ECECEC" d="M43.78 43.82 L-16.69 57.26 L-16.52 58.01 L43.78 43.82"/>
    <path fill="#131313" d="M43.78 43.82 L104.25 30.37 L104.08 29.63 L43.78 43.82"/>
    <path fill="#EBEBEB" d="M43.78 43.82 L-16.52 58.01 L-16.34 58.75 L43.78 43.82"/>
    <path fill="#141414" d="M43.78 43.82 L104.08 29.63 L103.9 28.88 L43.78 43.82"/>
    <path fill="#EAEAEA" d="M43.78 43.82 L-16.34 58.75 L-16.15 59.49 L43.78 43.82"/>
    <path fill="#151515" d="M43.78 43.82 L103.9 28.88 L103.72 28.14 L43.78 43.82"/>
    <path fill="#E9E9E9" d="M43.78 43.82 L-16.15 59.49 L-15.96 60.23 L43.78 43.82"/>
    <path fill="#161616" d="M43.78 43.82 L103.72 28.14 L103.52 27.41 L43.78 43.82"/>
    <path fill="#E8E8E8" d="M43.78 43.82 L-15.96 60.23 L-15.75 60.96 L43.78 43.82"/>
    <path fill="#171717" d="M43.78 43.82 L103.52 27.41 L103.31 26.67 L43.78 43.82"/>
    <path fill="#E7E7E7" d="M43.78 43.82 L-15.75 60.96 L-15.53 61.69 L43.78 43.82"/>
    <path fill="#181818" d="M43.78 43.82 L103.31 26.67 L103.1 25.94 L43.78 43.82"/>
    <path fill="#E6E6E6" d="M43.78 43.82 L-15.53 61.69 L-15.31 62.42 L43.78 43.82"/>
    <path fill="#191919" d="M43.78 43.82 L103.1 25.94 L102.87 25.21 L43.78 43.82"/>
    <path fill="#E5E5E5" d="M43.78 43.82 L-15.31 62.42 L-15.07 63.15 L43.78 43.82"/>
    <path fill="#1A1A1A" d="M43.78 43.82 L102.87 25.21 L102.64 24.49 L43.78 43.82"/>
    <path fill="#E4E4E4" d="M43.78 43.82 L-15.07 63.15 L-14.83 63.87 L43.78 43.82"/>
    <path fill="#1B1B1B" d="M43.78 43.82 L102.64 24.49 L102.39 23.76 L43.78 43.82"/>
    <path fill="#E3E3E3" d="M43.78 43.82 L-14.83 63.87 L-14.58 64.59 L43.78 43.82"/>
    <path fill="#1C1C1C" d="M43.78 43.82 L102.39 23.76 L102.14 23.04 L43.78 43.82"/>
    <path fill="#E2E2E2" d="M43.78 43.82 L-14.58 64.59 L-14.32 65.31 L43.78 43.82"/>
    <path fill="#1D1D1D" d="M43.78 43.82 L102.14 23.04 L101.88 22.32 L43.78 43.82"/>
    <path fill="#E1E1E1" d="M43.78 43.82 L-14.32 65.31 L-14.05 66.02 L43.78 43.82"/>
    <path fill="#1E1E1E" d="M43.78 43.82 L101.88 22.32 L101.61 21.61 L43.78 43.82"/>
    <path fill="#E0E0E0" d="M43.78 43.82 L-14.05 66.02 L-13.77 66.73 L43.78 43.82"/>
    <path fill="#1F1F1F" d="M43.78 43.82 L101.61 21.61 L101.34 20.9 L43.78 43.82"/>
    <path fill="#DFDFDF" d="M43.78 43.82 L-13.77 66.73 L-13.49 67.44 L43.78 43.82"/>
    <path fill="#202020" d="M43.78 43.82 L101.34 20.9 L101.05 20.19 L43.78 43.82"/>
    <path fill="#DEDEDE" d="M43.78 43.82 L-13.49 67.44 L-13.19 68.15 L43.78 43.82"/>
    <path fill="#212121" d="M43.78 43.82 L101.05 20.19 L100.75 19.49 L43.78 43.82"/>
    <path fill="#DDDDDD" d="M43.78 43.82 L-13.19 68.15 L-12.89 68.85 L43.78 43.82"/>
    <path fill="#222222" d="M43.78 43.82 L100.75 19.49 L100.45 18.79 L43.78 43.82"/>
    <path fill="gainsboro" d="M43.78 43.82 L-12.89 68.85 L-12.57 69.54 L43.78 43.82"/>
    <path fill="#232323" d="M43.78 43.82 L100.45 18.79 L100.14 18.09 L43.78 43.82"/>
    <path fill="#DBDBDB" d="M43.78 43.82 L-12.57 69.54 L-12.25 70.23 L43.78 43.82"/>
    <path fill="#242424" d="M43.78 43.82 L100.14 18.09 L99.82 17.4 L43.78 43.82"/>
    <path fill="#DADADA" d="M43.78 43.82 L-12.25 70.23 L-11.92 70.92 L43.78 43.82"/>
    <path fill="#252525" d="M43.78 43.82 L99.82 17.4 L99.49 16.71 L43.78 43.82"/>
    <path fill="#D9D9D9" d="M43.78 43.82 L-11.92 70.92 L-11.58 71.61 L43.78 43.82"/>
    <path fill="#262626" d="M43.78 43.82 L99.49 16.71 L99.15 16.03 L43.78 43.82"/>
    <path fill="#D8D8D8" d="M43.78 43.82 L-11.58 71.61 L-11.24 72.29 L43.78 43.82"/>
    <path fill="#272727" d="M43.78 43.82 L99.15 16.03 L98.8 15.35 L43.78 43.82"/>
    <path fill="#D7D7D7" d="M43.78 43.82 L-11.24 72.29 L-10.88 72.96 L43.78 43.82"/>
    <path fill="#282828" d="M43.78 43.82 L98.8 15.35 L98.45 14.67 L43.78 43.82"/>
    <path fill="#D6D6D6" d="M43.78 43.82 L-10.88 72.96 L-10.52 73.63 L43.78 43.82"/>
    <path fill="#292929" d="M43.78 43.82 L98.45 14.67 L98.08 14 L43.78 43.82"/>
    <path fill="#D5D5D5" d="M43.78 43.82 L-10.52 73.63 L-10.15 74.3 L43.78 43.82"/>
    <path fill="#2A2A2A" d="M43.78 43.82 L98.08 14 L97.71 13.33 L43.78 43.82"/>
    <path fill="#D4D4D4" d="M43.78 43.82 L-10.15 74.3 L-9.77 74.96 L43.78 43.82"/>
    <path fill="#2B2B2B" d="M43.78 43.82 L97.71 13.33 L97.33 12.67 L43.78 43.82"/>
    <path fill="lightgrey" d="M43.78 43.82 L-9.77 74.96 L-9.38 75.62 L43.78 43.82"/>
    <path fill="#2C2C2C" d="M43.78 43.82 L97.33 12.67 L96.94 12.01 L43.78 43.82"/>
    <path fill="#D2D2D2" d="M43.78 43.82 L-9.38 75.62 L-8.99 76.27 L43.78 43.82"/>
    <path fill="#2D2D2D" d="M43.78 43.82 L96.94 12.01 L96.55 11.36 L43.78 43.82"/>
    <path fill="#D1D1D1" d="M43.78 43.82 L-8.99 76.27 L-8.58 76.92 L43.78 43.82"/>
    <path fill="#2E2E2E" d="M43.78 43.82 L96.55 11.36 L96.14 10.71 L43.78 43.82"/>
    <path fill="#D0D0D0" d="M43.78 43.82 L-8.58 76.92 L-8.17 77.56 L43.78 43.82"/>
    <path fill="#2F2F2F" d="M43.78 43.82 L96.14 10.71 L95.73 10.07 L43.78 43.82"/>
    <path fill="#CFCFCF" d="M43.78 43.82 L-8.17 77.56 L-7.75 78.2 L43.78 43.82"/>
    <path fill="#303030" d="M43.78 43.82 L95.73 10.07 L95.31 9.43 L43.78 43.82"/>
    <path fill="#CECECE" d="M43.78 43.82 L-7.75 78.2 L-7.32 78.83 L43.78 43.82"/>
    <path fill="#313131" d="M43.78 43.82 L95.31 9.43 L94.89 8.8 L43.78 43.82"/>
    <path fill="#CDCDCD" d="M43.78 43.82 L-7.32 78.83 L-6.89 79.46 L43.78 43.82"/>
    <path fill="#323232" d="M43.78 43.82 L94.89 8.8 L94.45 8.17 L43.78 43.82"/>
    <path fill="#CCCCCC" d="M43.78 43.82 L-6.89 79.46 L-6.44 80.08 L43.78 43.82"/>
    <path fill="#333333" d="M43.78 43.82 L94.45 8.17 L94.01 7.55 L43.78 43.82"/>
    <path fill="#CBCBCB" d="M43.78 43.82 L-6.44 80.08 L-5.99 80.7 L43.78 43.82"/>
    <path fill="#343434" d="M43.78 43.82 L94.01 7.55 L93.56 6.94 L43.78 43.82"/>
    <path fill="#CACACA" d="M43.78 43.82 L-5.99 80.7 L-5.54 81.31 L43.78 43.82"/>
    <path fill="#353535" d="M43.78 43.82 L93.56 6.94 L93.1 6.33 L43.78 43.82"/>
    <path fill="#C9C9C9" d="M43.78 43.82 L-5.54 81.31 L-5.07 81.91 L43.78 43.82"/>
    <path fill="#363636" d="M43.78 43.82 L93.1 6.33 L92.63 5.72 L43.78 43.82"/>
    <path fill="#C8C8C8" d="M43.78 43.82 L-5.07 81.91 L-4.6 82.51 L43.78 43.82"/>
    <path fill="#373737" d="M43.78 43.82 L92.63 5.72 L92.16 5.12 L43.78 43.82"/>
    <path fill="#C7C7C7" d="M43.78 43.82 L-4.6 82.51 L-4.12 83.1 L43.78 43.82"/>
    <path fill="#383838" d="M43.78 43.82 L92.16 5.12 L91.68 4.53 L43.78 43.82"/>
    <path fill="#C6C6C6" d="M43.78 43.82 L-4.12 83.1 L-3.63 83.69 L43.78 43.82"/>
    <path fill="#393939" d="M43.78 43.82 L91.68 4.53 L91.19 3.94 L43.78 43.82"/>
    <path fill="#C5C5C5" d="M43.78 43.82 L-3.63 83.69 L-3.13 84.27 L43.78 43.82"/>
    <path fill="#3A3A3A" d="M43.78 43.82 L91.19 3.94 L90.7 3.36 L43.78 43.82"/>
    <path fill="#C4C4C4" d="M43.78 43.82 L-3.13 84.27 L-2.63 84.85 L43.78 43.82"/>
    <path fill="#3B3B3B" d="M43.78 43.82 L90.7 3.36 L90.19 2.79 L43.78 43.82"/>
    <path fill="#C3C3C3" d="M43.78 43.82 L-2.63 84.85 L-2.12 85.42 L43.78 43.82"/>
    <path fill="#3C3C3C" d="M43.78 43.82 L90.19 2.79 L89.69 2.22 L43.78 43.82"/>
    <path fill="#C2C2C2" d="M43.78 43.82 L-2.12 85.42 L-1.61 85.98 L43.78 43.82"/>
    <path fill="#3D3D3D" d="M43.78 43.82 L89.69 2.22 L89.17 1.66 L43.78 43.82"/>
    <path fill="#C1C1C1" d="M43.78 43.82 L-1.61 85.98 L-1.08 86.53 L43.78 43.82"/>
    <path fill="#3E3E3E" d="M43.78 43.82 L89.17 1.66 L88.65 1.1 L43.78 43.82"/>
    <path fill="silver" d="M43.78 43.82 L-1.08 86.53 L-0.55 87.08 L43.78 43.82"/>
    <path fill="#3F3F3F" d="M43.78 43.82 L88.65 1.1 L88.12 0.55 L43.78 43.82"/>
    <path fill="#BFBFBF" d="M43.78 43.82 L-0.55 87.08 L-0.02 87.63 L43.78 43.82"/>
    <path fill="#404040" d="M43.78 43.82 L88.12 0.55 L87.58 0.01 L43.78 43.82"/>
    <path fill="#BEBEBE" d="M43.78 43.82 L-0.02 87.63 L0.52 88.16 L43.78 43.82"/>
    <path fill="#414141" d="M43.78 43.82 L87.58 0.01 L87.04 -0.53 L43.78 43.82"/>
    <path fill="#BDBDBD" d="M43.78 43.82 L0.52 88.16 L1.07 88.69 L43.78 43.82"/>
    <path fill="#424242" d="M43.78 43.82 L87.04 -0.53 L86.49 -1.06 L43.78 43.82"/>
    <path fill="#BCBCBC" d="M43.78 43.82 L1.07 88.69 L1.63 89.21 L43.78 43.82"/>
    <path fill="#434343" d="M43.78 43.82 L86.49 -1.06 L85.93 -1.58 L43.78 43.82"/>
    <path fill="#BBBBBB" d="M43.78 43.82 L1.63 89.21 L2.19 89.73 L43.78 43.82"/>
    <path fill="#444444" d="M43.78 43.82 L85.93 -1.58 L85.37 -2.1 L43.78 43.82"/>
    <path fill="#BABABA" d="M43.78 43.82 L2.19 89.73 L2.76 90.24 L43.78 43.82"/>
    <path fill="#454545" d="M43.78 43.82 L85.37 -2.1 L84.8 -2.61 L43.78 43.82"/>
    <path fill="#B9B9B9" d="M43.78 43.82 L2.76 90.24 L3.34 90.74 L43.78 43.82"/>
    <path fill="#464646" d="M43.78 43.82 L84.8 -2.61 L84.23 -3.11 L43.78 43.82"/>
    <path fill="#B8B8B8" d="M43.78 43.82 L3.34 90.74 L3.92 91.24 L43.78 43.82"/>
    <path fill="#474747" d="M43.78 43.82 L84.23 -3.11 L83.64 -3.6 L43.78 43.82"/>
    <path fill="#B7B7B7" d="M43.78 43.82 L3.92 91.24 L4.51 91.72 L43.78 43.82"/>
    <path fill="#484848" d="M43.78 43.82 L83.64 -3.6 L83.06 -4.09 L43.78 43.82"/>
    <path fill="#B6B6B6" d="M43.78 43.82 L4.51 91.72 L5.1 92.2 L43.78 43.82"/>
    <path fill="#494949" d="M43.78 43.82 L83.06 -4.09 L82.46 -4.57 L43.78 43.82"/>
    <path fill="#B5B5B5" d="M43.78 43.82 L5.1 92.2 L5.7 92.68 L43.78 43.82"/>
    <path fill="#4A4A4A" d="M43.78 43.82 L82.46 -4.57 L81.87 -5.04 L43.78 43.82"/>
    <path fill="#B4B4B4" d="M43.78 43.82 L5.7 92.68 L6.3 93.14 L43.78 43.82"/>
    <path fill="#4B4B4B" d="M43.78 43.82 L81.87 -5.04 L81.26 -5.51 L43.78 43.82"/>
    <path fill="#B3B3B3" d="M43.78 43.82 L6.3 93.14 L6.91 93.6 L43.78 43.82"/>
    <path fill="#4C4C4C" d="M43.78 43.82 L81.26 -5.51 L80.65 -5.97 L43.78 43.82"/>
    <path fill="#B2B2B2" d="M43.78 43.82 L6.91 93.6 L7.53 94.05 L43.78 43.82"/>
    <path fill="#4D4D4D" d="M43.78 43.82 L80.65 -5.97 L80.03 -6.42 L43.78 43.82"/>
    <path fill="#B1B1B1" d="M43.78 43.82 L7.53 94.05 L8.15 94.49 L43.78 43.82"/>
    <path fill="#4E4E4E" d="M43.78 43.82 L80.03 -6.42 L79.41 -6.86 L43.78 43.82"/>
    <path fill="#B0B0B0" d="M43.78 43.82 L8.15 94.49 L8.78 94.93 L43.78 43.82"/>
    <path fill="#4F4F4F" d="M43.78 43.82 L79.41 -6.86 L78.79 -7.3 L43.78 43.82"/>
    <path fill="#AFAFAF" d="M43.78 43.82 L8.78 94.93 L9.41 95.36 L43.78 43.82"/>
    <path fill="#505050" d="M43.78 43.82 L78.79 -7.3 L78.15 -7.72 L43.78 43.82"/>
    <path fill="#AEAEAE" d="M43.78 43.82 L9.41 95.36 L10.05 95.78 L43.78 43.82"/>
    <path fill="#515151" d="M43.78 43.82 L78.15 -7.72 L77.52 -8.14 L43.78 43.82"/>
    <path fill="#ADADAD" d="M43.78 43.82 L10.05 95.78 L10.69 96.19 L43.78 43.82"/>
    <path fill="#525252" d="M43.78 43.82 L77.52 -8.14 L76.87 -8.55 L43.78 43.82"/>
    <path fill="#ACACAC" d="M43.78 43.82 L10.69 96.19 L11.34 96.59 L43.78 43.82"/>
    <path fill="#535353" d="M43.78 43.82 L76.87 -8.55 L76.22 -8.96 L43.78 43.82"/>
    <path fill="#ABABAB" d="M43.78 43.82 L11.34 96.59 L11.99 96.99 L43.78 43.82"/>
    <path fill="#545454" d="M43.78 43.82 L76.22 -8.96 L75.57 -9.35 L43.78 43.82"/>
    <path fill="#AAAAAA" d="M43.78 43.82 L11.99 96.99 L12.65 97.37 L43.78 43.82"/>
    <path fill="#555555" d="M43.78 43.82 L75.57 -9.35 L74.91 -9.74 L43.78 43.82"/>
    <path fill="darkgray" d="M43.78 43.82 L12.65 97.37 L13.31 97.75 L43.78 43.82"/>
    <path fill="#565656" d="M43.78 43.82 L74.91 -9.74 L74.25 -10.12 L43.78 43.82"/>
    <path fill="#A8A8A8" d="M43.78 43.82 L13.31 97.75 L13.98 98.12 L43.78 43.82"/>
    <path fill="#575757" d="M43.78 43.82 L74.25 -10.12 L73.59 -10.49 L43.78 43.82"/>
    <path fill="#A7A7A7" d="M43.78 43.82 L13.98 98.12 L14.65 98.49 L43.78 43.82"/>
    <path fill="#585858" d="M43.78 43.82 L73.59 -10.49 L72.91 -10.85 L43.78 43.82"/>
    <path fill="#A6A6A6" d="M43.78 43.82 L14.65 98.49 L15.32 98.84 L43.78 43.82"/>
    <path fill="#595959" d="M43.78 43.82 L72.91 -10.85 L72.24 -11.21 L43.78 43.82"/>
    <path fill="#A5A5A5" d="M43.78 43.82 L15.32 98.84 L16 99.19 L43.78 43.82"/>
    <path fill="#5A5A5A" d="M43.78 43.82 L72.24 -11.21 L71.56 -11.56 L43.78 43.82"/>
    <path fill="#A4A4A4" d="M43.78 43.82 L16 99.19 L16.69 99.53 L43.78 43.82"/>
    <path fill="#5B5B5B" d="M43.78 43.82 L71.56 -11.56 L70.87 -11.89 L43.78 43.82"/>
    <path fill="#A3A3A3" d="M43.78 43.82 L16.69 99.53 L17.38 99.86 L43.78 43.82"/>
    <path fill="#5C5C5C" d="M43.78 43.82 L70.87 -11.89 L70.19 -12.22 L43.78 43.82"/>
    <path fill="#A2A2A2" d="M43.78 43.82 L17.38 99.86 L18.07 100.18 L43.78 43.82"/>
    <path fill="#5D5D5D" d="M43.78 43.82 L70.19 -12.22 L69.49 -12.54 L43.78 43.82"/>
    <path fill="#A1A1A1" d="M43.78 43.82 L18.07 100.18 L18.77 100.49 L43.78 43.82"/>
    <path fill="#5E5E5E" d="M43.78 43.82 L69.49 -12.54 L68.8 -12.86 L43.78 43.82"/>
    <path fill="#A0A0A0" d="M43.78 43.82 L18.77 100.49 L19.47 100.79 L43.78 43.82"/>
    <path fill="#5F5F5F" d="M43.78 43.82 L68.8 -12.86 L68.1 -13.16 L43.78 43.82"/>
    <path fill="#9F9F9F" d="M43.78 43.82 L19.47 100.79 L20.17 101.09 L43.78 43.82"/>
    <path fill="#606060" d="M43.78 43.82 L68.1 -13.16 L67.39 -13.46 L43.78 43.82"/>
    <path fill="#9E9E9E" d="M43.78 43.82 L20.17 101.09 L20.88 101.38 L43.78 43.82"/>
    <path fill="#616161" d="M43.78 43.82 L67.39 -13.46 L66.69 -13.74 L43.78 43.82"/>
    <path fill="#9D9D9D" d="M43.78 43.82 L20.88 101.38 L21.59 101.65 L43.78 43.82"/>
    <path fill="#626262" d="M43.78 43.82 L66.69 -13.74 L65.98 -14.02 L43.78 43.82"/>
    <path fill="#9C9C9C" d="M43.78 43.82 L21.59 101.65 L22.3 101.92 L43.78 43.82"/>
    <path fill="#636363" d="M43.78 43.82 L65.98 -14.02 L65.26 -14.29 L43.78 43.82"/>
    <path fill="#9B9B9B" d="M43.78 43.82 L22.3 101.92 L23.02 102.18 L43.78 43.82"/>
    <path fill="#646464" d="M43.78 43.82 L65.26 -14.29 L64.54 -14.55 L43.78 43.82"/>
    <path fill="#9A9A9A" d="M43.78 43.82 L23.02 102.18 L23.74 102.43 L43.78 43.82"/>
    <path fill="#656565" d="M43.78 43.82 L64.54 -14.55 L63.82 -14.8 L43.78 43.82"/>
    <path fill="#999999" d="M43.78 43.82 L23.74 102.43 L24.46 102.68 L43.78 43.82"/>
    <path fill="#666666" d="M43.78 43.82 L63.82 -14.8 L63.1 -15.04 L43.78 43.82"/>
    <path fill="#989898" d="M43.78 43.82 L24.46 102.68 L25.19 102.91 L43.78 43.82"/>
    <path fill="#676767" d="M43.78 43.82 L63.1 -15.04 L62.37 -15.28 L43.78 43.82"/>
    <path fill="#979797" d="M43.78 43.82 L25.19 102.91 L25.92 103.13 L43.78 43.82"/>
    <path fill="#686868" d="M43.78 43.82 L62.37 -15.28 L61.64 -15.5 L43.78 43.82"/>
    <path fill="#969696" d="M43.78 43.82 L25.92 103.13 L26.65 103.35 L43.78 43.82"/>
    <path fill="dimgray" d="M43.78 43.82 L61.64 -15.5 L60.91 -15.72 L43.78 43.82"/>
    <path fill="#959595" d="M43.78 43.82 L26.65 103.35 L27.39 103.56 L43.78 43.82"/>
    <path fill="#6A6A6A" d="M43.78 43.82 L60.91 -15.72 L60.18 -15.92 L43.78 43.82"/>
    <path fill="#949494" d="M43.78 43.82 L27.39 103.56 L28.12 103.75 L43.78 43.82"/>
    <path fill="#6B6B6B" d="M43.78 43.82 L60.18 -15.92 L59.44 -16.12 L43.78 43.82"/>
    <path fill="#939393" d="M43.78 43.82 L28.12 103.75 L28.86 103.94 L43.78 43.82"/>
    <path fill="#6C6C6C" d="M43.78 43.82 L59.44 -16.12 L58.7 -16.31 L43.78 43.82"/>
    <path fill="#929292" d="M43.78 43.82 L28.86 103.94 L29.6 104.12 L43.78 43.82"/>
    <path fill="#6D6D6D" d="M43.78 43.82 L58.7 -16.31 L57.96 -16.49 L43.78 43.82"/>
    <path fill="#919191" d="M43.78 43.82 L29.6 104.12 L30.35 104.29 L43.78 43.82"/>
    <path fill="#6E6E6E" d="M43.78 43.82 L57.96 -16.49 L57.21 -16.66 L43.78 43.82"/>
    <path fill="#909090" d="M43.78 43.82 L30.35 104.29 L31.09 104.45 L43.78 43.82"/>
    <path fill="#6F6F6F" d="M43.78 43.82 L57.21 -16.66 L56.47 -16.82 L43.78 43.82"/>
    <path fill="#8F8F8F" d="M43.78 43.82 L31.09 104.45 L31.84 104.6 L43.78 43.82"/>
    <path fill="#707070" d="M43.78 43.82 L56.47 -16.82 L55.72 -16.97 L43.78 43.82"/>
    <path fill="#8E8E8E" d="M43.78 43.82 L31.84 104.6 L32.59 104.75 L43.78 43.82"/>
    <path fill="#717171" d="M43.78 43.82 L55.72 -16.97 L54.97 -17.11 L43.78 43.82"/>
    <path fill="#8D8D8D" d="M43.78 43.82 L32.59 104.75 L33.34 104.88 L43.78 43.82"/>
    <path fill="#727272" d="M43.78 43.82 L54.97 -17.11 L54.22 -17.25 L43.78 43.82"/>
    <path fill="#8C8C8C" d="M43.78 43.82 L33.34 104.88 L34.1 105 L43.78 43.82"/>
    <path fill="#737373" d="M43.78 43.82 L54.22 -17.25 L53.47 -17.37 L43.78 43.82"/>
    <path fill="#8B8B8B" d="M43.78 43.82 L34.1 105 L34.85 105.12 L43.78 43.82"/>
    <path fill="#747474" d="M43.78 43.82 L53.47 -17.37 L52.71 -17.49 L43.78 43.82"/>
    <path fill="#8A8A8A" d="M43.78 43.82 L34.85 105.12 L35.61 105.22 L43.78 43.82"/>
    <path fill="#757575" d="M43.78 43.82 L52.71 -17.49 L51.95 -17.59 L43.78 43.82"/>
    <path fill="#898989" d="M43.78 43.82 L35.61 105.22 L36.36 105.32 L43.78 43.82"/>
    <path fill="#767676" d="M43.78 43.82 L51.95 -17.59 L51.2 -17.69 L43.78 43.82"/>
    <path fill="#888888" d="M43.78 43.82 L36.36 105.32 L37.12 105.41 L43.78 43.82"/>
    <path fill="#777777" d="M43.78 43.82 L51.2 -17.69 L50.44 -17.77 L43.78 43.82"/>
    <path fill="#878787" d="M43.78 43.82 L37.12 105.41 L37.88 105.48 L43.78 43.82"/>
    <path fill="#787878" d="M43.78 43.82 L50.44 -17.77 L49.68 -17.85 L43.78 43.82"/>
    <path fill="#868686" d="M43.78 43.82 L37.88 105.48 L38.64 105.55 L43.78 43.82"/>
    <path fill="#797979" d="M43.78 43.82 L49.68 -17.85 L48.92 -17.92 L43.78 43.82"/>
    <path fill="#858585" d="M43.78 43.82 L38.64 105.55 L39.4 105.61 L43.78 43.82"/>
    <path fill="#7A7A7A" d="M43.78 43.82 L48.92 -17.92 L48.16 -17.98 L43.78 43.82"/>
    <path fill="#848484" d="M43.78 43.82 L39.4 105.61 L40.17 105.66 L43.78 43.82"/>
    <path fill="#7B7B7B" d="M43.78 43.82 L48.16 -17.98 L47.4 -18.03 L43.78 43.82"/>
    <path fill="#838383" d="M43.78 43.82 L40.17 105.66 L40.93 105.7 L43.78 43.82"/>
    <path fill="#7C7C7C" d="M43.78 43.82 L47.4 -18.03 L46.64 -18.07 L43.78 43.82"/>
    <path fill="#828282" d="M43.78 43.82 L40.93 105.7 L41.69 105.73 L43.78 43.82"/>
    <path fill="#7D7D7D" d="M43.78 43.82 L46.64 -18.07 L45.87 -18.1 L43.78 43.82"/>
    <path fill="#818181" d="M43.78 43.82 L41.69 105.73 L42.45 105.75 L43.78 43.82"/>
    <path fill="#7E7E7E" d="M43.78 43.82 L45.87 -18.1 L45.11 -18.12 L43.78 43.82"/>
    <path fill="gray" d="M43.78 43.82 L42.45 105.75 L43.22 105.76 L43.78 43.82"/>
    <path fill="#7F7F7F" d="M43.78 43.82 L45.11 -18.12 L44.35 -18.13 L43.78 43.82"/>
    <path fill="#7F7F7F" d="M43.78 43.82 L43.22 105.76 L43.98 105.77 L43.78 43.82"/>
    <path fill="gray" d="M43.78 43.82 L44.35 -18.13 L43.58 -18.13 L43.78 43.82"/>
    <path fill="#7E7E7E" d="M43.78 43.82 L43.98 105.77 L44.74 105.76 L43.78 43.82"/>
    <path fill="#818181" d="M43.78 43.82 L43.58 -18.13 L42.82 -18.13 L43.78 43.82"/>
    <path fill="#7D7D7D" d="M43.78 43.82 L44.74 105.76 L45.51 105.74 L43.78 43.82"/>
    <path fill="#828282" d="M43.78 43.82 L42.82 -18.13 L42.06 -18.11 L43.78 43.82"/>
    <path fill="#7C7C7C" d="M43.78 43.82 L45.51 105.74 L46.27 105.72 L43.78 43.82"/>
    <path fill="#838383" d="M43.78 43.82 L42.06 -18.11 L41.29 -18.08 L43.78 43.82"/>
    <path fill="#7B7B7B" d="M43.78 43.82 L46.27 105.72 L47.03 105.68 L43.78 43.82"/>
    <path fill="#848484" d="M43.78 43.82 L41.29 -18.08 L40.53 -18.05 L43.78 43.82"/>
    <path fill="#7A7A7A" d="M43.78 43.82 L47.03 105.68 L47.79 105.64 L43.78 43.82"/>
    <path fill="#858585" d="M43.78 43.82 L40.53 -18.05 L39.77 -18 L43.78 43.82"/>
    <path fill="#797979" d="M43.78 43.82 L47.79 105.64 L48.55 105.58 L43.78 43.82"/>
    <path fill="#868686" d="M43.78 43.82 L39.77 -18 L39.01 -17.95 L43.78 43.82"/>
    <path fill="#787878" d="M43.78 43.82 L48.55 105.58 L49.31 105.52 L43.78 43.82"/>
    <path fill="#878787" d="M43.78 43.82 L39.01 -17.95 L38.25 -17.89 L43.78 43.82"/>
    <path fill="#777777" d="M43.78 43.82 L49.31 105.52 L50.07 105.45 L43.78 43.82"/>
    <path fill="#888888" d="M43.78 43.82 L38.25 -17.89 L37.49 -17.81 L43.78 43.82"/>
    <path fill="#767676" d="M43.78 43.82 L50.07 105.45 L50.83 105.36 L43.78 43.82"/>
    <path fill="#898989" d="M43.78 43.82 L37.49 -17.81 L36.73 -17.73 L43.78 43.82"/>
    <path fill="#757575" d="M43.78 43.82 L50.83 105.36 L51.59 105.27 L43.78 43.82"/>
    <path fill="#8A8A8A" d="M43.78 43.82 L36.73 -17.73 L35.97 -17.64 L43.78 43.82"/>
    <path fill="#747474" d="M43.78 43.82 L51.59 105.27 L52.35 105.17 L43.78 43.82"/>
    <path fill="#8B8B8B" d="M43.78 43.82 L35.97 -17.64 L35.22 -17.54 L43.78 43.82"/>
    <path fill="#737373" d="M43.78 43.82 L52.35 105.17 L53.1 105.06 L43.78 43.82"/>
    <path fill="#8C8C8C" d="M43.78 43.82 L35.22 -17.54 L34.46 -17.43 L43.78 43.82"/>
    <path fill="#727272" d="M43.78 43.82 L53.1 105.06 L53.86 104.94 L43.78 43.82"/>
    <path fill="#8D8D8D" d="M43.78 43.82 L34.46 -17.43 L33.71 -17.31 L43.78 43.82"/>
    <path fill="#717171" d="M43.78 43.82 L53.86 104.94 L54.61 104.81 L43.78 43.82"/>
    <path fill="#8E8E8E" d="M43.78 43.82 L33.71 -17.31 L32.95 -17.18 L43.78 43.82"/>
    <path fill="#707070" d="M43.78 43.82 L54.61 104.81 L55.36 104.67 L43.78 43.82"/>
    <path fill="#8F8F8F" d="M43.78 43.82 L32.95 -17.18 L32.2 -17.04 L43.78 43.82"/>
    <path fill="#6F6F6F" d="M43.78 43.82 L55.36 104.67 L56.11 104.53 L43.78 43.82"/>
    <path fill="#909090" d="M43.78 43.82 L32.2 -17.04 L31.45 -16.89 L43.78 43.82"/>
    <path fill="#6E6E6E" d="M43.78 43.82 L56.11 104.53 L56.85 104.37 L43.78 43.82"/>
    <path fill="#919191" d="M43.78 43.82 L31.45 -16.89 L30.71 -16.74 L43.78 43.82"/>
    <path fill="#6D6D6D" d="M43.78 43.82 L56.85 104.37 L57.6 104.2 L43.78 43.82"/>
    <path fill="#929292" d="M43.78 43.82 L30.71 -16.74 L29.96 -16.57 L43.78 43.82"/>
    <path fill="#6C6C6C" d="M43.78 43.82 L57.6 104.2 L58.34 104.03 L43.78 43.82"/>
    <path fill="#939393" d="M43.78 43.82 L29.96 -16.57 L29.22 -16.4 L43.78 43.82"/>
    <path fill="#6B6B6B" d="M43.78 43.82 L58.34 104.03 L59.08 103.85 L43.78 43.82"/>
    <path fill="#949494" d="M43.78 43.82 L29.22 -16.4 L28.48 -16.21 L43.78 43.82"/>
    <path fill="#6A6A6A" d="M43.78 43.82 L59.08 103.85 L59.82 103.65 L43.78 43.82"/>
    <path fill="#959595" d="M43.78 43.82 L28.48 -16.21 L27.74 -16.02 L43.78 43.82"/>
    <path fill="dimgray" d="M43.78 43.82 L59.82 103.65 L60.56 103.45 L43.78 43.82"/>
    <path fill="#969696" d="M43.78 43.82 L27.74 -16.02 L27 -15.82 L43.78 43.82"/>
    <path fill="#686868" d="M43.78 43.82 L60.56 103.45 L61.29 103.24 L43.78 43.82"/>
    <path fill="#979797" d="M43.78 43.82 L27 -15.82 L26.27 -15.61 L43.78 43.82"/>
    <path fill="#676767" d="M43.78 43.82 L61.29 103.24 L62.02 103.02 L43.78 43.82"/>
    <path fill="#989898" d="M43.78 43.82 L26.27 -15.61 L25.54 -15.39 L43.78 43.82"/>
    <path fill="#666666" d="M43.78 43.82 L62.02 103.02 L62.75 102.79 L43.78 43.82"/>
    <path fill="#999999" d="M43.78 43.82 L25.54 -15.39 L24.81 -15.16 L43.78 43.82"/>
    <path fill="#656565" d="M43.78 43.82 L62.75 102.79 L63.47 102.55 L43.78 43.82"/>
    <path fill="#9A9A9A" d="M43.78 43.82 L24.81 -15.16 L24.09 -14.92 L43.78 43.82"/>
    <path fill="#646464" d="M43.78 43.82 L63.47 102.55 L64.2 102.3 L43.78 43.82"/>
    <path fill="#9B9B9B" d="M43.78 43.82 L24.09 -14.92 L23.37 -14.67 L43.78 43.82"/>
    <path fill="#636363" d="M43.78 43.82 L64.2 102.3 L64.92 102.05 L43.78 43.82"/>
    <path fill="#9C9C9C" d="M43.78 43.82 L23.37 -14.67 L22.65 -14.42 L43.78 43.82"/>
    <path fill="#626262" d="M43.78 43.82 L64.92 102.05 L65.63 101.78 L43.78 43.82"/>
    <path fill="#9D9D9D" d="M43.78 43.82 L22.65 -14.42 L21.93 -14.15 L43.78 43.82"/>
    <path fill="#616161" d="M43.78 43.82 L65.63 101.78 L66.34 101.51 L43.78 43.82"/>
    <path fill="#9E9E9E" d="M43.78 43.82 L21.93 -14.15 L21.22 -13.88 L43.78 43.82"/>
    <path fill="#606060" d="M43.78 43.82 L66.34 101.51 L67.05 101.23 L43.78 43.82"/>
    <path fill="#9F9F9F" d="M43.78 43.82 L21.22 -13.88 L20.51 -13.6 L43.78 43.82"/>
    <path fill="#5F5F5F" d="M43.78 43.82 L67.05 101.23 L67.76 100.94 L43.78 43.82"/>
    <path fill="#A0A0A0" d="M43.78 43.82 L20.51 -13.6 L19.8 -13.3 L43.78 43.82"/>
    <path fill="#5E5E5E" d="M43.78 43.82 L67.76 100.94 L68.46 100.64 L43.78 43.82"/>
    <path fill="#A1A1A1" d="M43.78 43.82 L19.8 -13.3 L19.1 -13 L43.78 43.82"/>
    <path fill="#5D5D5D" d="M43.78 43.82 L68.46 100.64 L69.16 100.33 L43.78 43.82"/>
    <path fill="#A2A2A2" d="M43.78 43.82 L19.1 -13 L18.4 -12.7 L43.78 43.82"/>
    <path fill="#5C5C5C" d="M43.78 43.82 L69.16 100.33 L69.85 100.01 L43.78 43.82"/>
    <path fill="#A3A3A3" d="M43.78 43.82 L18.4 -12.7 L17.71 -12.38 L43.78 43.82"/>
    <path fill="#5B5B5B" d="M43.78 43.82 L69.85 100.01 L70.54 99.69 L43.78 43.82"/>
    <path fill="#A4A4A4" d="M43.78 43.82 L17.71 -12.38 L17.02 -12.05 L43.78 43.82"/>
    <path fill="#5A5A5A" d="M43.78 43.82 L70.54 99.69 L71.23 99.35 L43.78 43.82"/>
    <path fill="#A5A5A5" d="M43.78 43.82 L17.02 -12.05 L16.33 -11.72 L43.78 43.82"/>
    <path fill="#595959" d="M43.78 43.82 L71.23 99.35 L71.91 99.01 L43.78 43.82"/>
    <path fill="#A6A6A6" d="M43.78 43.82 L16.33 -11.72 L15.65 -11.38 L43.78 43.82"/>
    <path fill="#585858" d="M43.78 43.82 L71.91 99.01 L72.59 98.66 L43.78 43.82"/>
    <path fill="#A7A7A7" d="M43.78 43.82 L15.65 -11.38 L14.97 -11.03 L43.78 43.82"/>
    <path fill="#575757" d="M43.78 43.82 L72.59 98.66 L73.26 98.3 L43.78 43.82"/>
    <path fill="#A8A8A8" d="M43.78 43.82 L14.97 -11.03 L14.3 -10.67 L43.78 43.82"/>
    <path fill="#565656" d="M43.78 43.82 L73.26 98.3 L73.93 97.93 L43.78 43.82"/>
    <path fill="darkgray" d="M43.78 43.82 L14.3 -10.67 L13.63 -10.3 L43.78 43.82"/>
    <path fill="#555555" d="M43.78 43.82 L73.93 97.93 L74.6 97.56 L43.78 43.82"/>
    <path fill="#AAAAAA" d="M43.78 43.82 L13.63 -10.3 L12.97 -9.92 L43.78 43.82"/>
    <path fill="#545454" d="M43.78 43.82 L74.6 97.56 L75.26 97.17 L43.78 43.82"/>
    <path fill="#ABABAB" d="M43.78 43.82 L12.97 -9.92 L12.31 -9.54 L43.78 43.82"/>
    <path fill="#535353" d="M43.78 43.82 L75.26 97.17 L75.91 96.78 L43.78 43.82"/>
    <path fill="#ACACAC" d="M43.78 43.82 L12.31 -9.54 L11.65 -9.15 L43.78 43.82"/>
    <path fill="#525252" d="M43.78 43.82 L75.91 96.78 L76.56 96.38 L43.78 43.82"/>
    <path fill="#ADADAD" d="M43.78 43.82 L11.65 -9.15 L11 -8.75 L43.78 43.82"/>
    <path fill="#515151" d="M43.78 43.82 L76.56 96.38 L77.21 95.97 L43.78 43.82"/>
    <path fill="#AEAEAE" d="M43.78 43.82 L11 -8.75 L10.36 -8.34 L43.78 43.82"/>
    <path fill="#505050" d="M43.78 43.82 L77.21 95.97 L77.85 95.56 L43.78 43.82"/>
    <path fill="#AFAFAF" d="M43.78 43.82 L10.36 -8.34 L9.72 -7.93 L43.78 43.82"/>
    <path fill="#4F4F4F" d="M43.78 43.82 L77.85 95.56 L78.48 95.14 L43.78 43.82"/>
    <path fill="#B0B0B0" d="M43.78 43.82 L9.72 -7.93 L9.08 -7.5 L43.78 43.82"/>
    <path fill="#4E4E4E" d="M43.78 43.82 L78.48 95.14 L79.11 94.7 L43.78 43.82"/>
    <path fill="#B1B1B1" d="M43.78 43.82 L9.08 -7.5 L8.45 -7.07 L43.78 43.82"/>
    <path fill="#4D4D4D" d="M43.78 43.82 L79.11 94.7 L79.74 94.26 L43.78 43.82"/>
    <path fill="#B2B2B2" d="M43.78 43.82 L8.45 -7.07 L7.83 -6.63 L43.78 43.82"/>
    <path fill="#4C4C4C" d="M43.78 43.82 L79.74 94.26 L80.35 93.82 L43.78 43.82"/>
    <path fill="#B3B3B3" d="M43.78 43.82 L7.83 -6.63 L7.21 -6.18 L43.78 43.82"/>
    <path fill="#4B4B4B" d="M43.78 43.82 L80.35 93.82 L80.97 93.36 L43.78 43.82"/>
    <path fill="#B4B4B4" d="M43.78 43.82 L7.21 -6.18 L6.6 -5.73 L43.78 43.82"/>
    <path fill="#4A4A4A" d="M43.78 43.82 L80.97 93.36 L81.57 92.9 L43.78 43.82"/>
    <path fill="#B5B5B5" d="M43.78 43.82 L6.6 -5.73 L5.99 -5.27 L43.78 43.82"/>
    <path fill="#494949" d="M43.78 43.82 L81.57 92.9 L82.18 92.43 L43.78 43.82"/>
    <path fill="#B6B6B6" d="M43.78 43.82 L5.99 -5.27 L5.39 -4.8 L43.78 43.82"/>
    <path fill="#484848" d="M43.78 43.82 L82.18 92.43 L82.77 91.96 L43.78 43.82"/>
    <path fill="#B7B7B7" d="M43.78 43.82 L5.39 -4.8 L4.79 -4.32 L43.78 43.82"/>
    <path fill="#474747" d="M43.78 43.82 L82.77 91.96 L83.36 91.47 L43.78 43.82"/>
    <path fill="#B8B8B8" d="M43.78 43.82 L4.79 -4.32 L4.2 -3.84 L43.78 43.82"/>
    <path fill="#464646" d="M43.78 43.82 L83.36 91.47 L83.95 90.98 L43.78 43.82"/>
    <path fill="#B9B9B9" d="M43.78 43.82 L4.2 -3.84 L3.62 -3.35 L43.78 43.82"/>
    <path fill="#454545" d="M43.78 43.82 L83.95 90.98 L84.52 90.48 L43.78 43.82"/>
    <path fill="#BABABA" d="M43.78 43.82 L3.62 -3.35 L3.04 -2.85 L43.78 43.82"/>
    <path fill="#444444" d="M43.78 43.82 L84.52 90.48 L85.1 89.98 L43.78 43.82"/>
    <path fill="#BBBBBB" d="M43.78 43.82 L3.04 -2.85 L2.47 -2.34 L43.78 43.82"/>
    <path fill="#434343" d="M43.78 43.82 L85.1 89.98 L85.66 89.46 L43.78 43.82"/>
    <path fill="#BCBCBC" d="M43.78 43.82 L2.47 -2.34 L1.9 -1.83 L43.78 43.82"/>
    <path fill="#424242" d="M43.78 43.82 L85.66 89.46 L86.22 88.94 L43.78 43.82"/>
    <path fill="#BDBDBD" d="M43.78 43.82 L1.9 -1.83 L1.34 -1.31 L43.78 43.82"/>
    <path fill="#414141" d="M43.78 43.82 L86.22 88.94 L86.77 88.42 L43.78 43.82"/>
    <path fill="#BEBEBE" d="M43.78 43.82 L1.34 -1.31 L0.79 -0.79 L43.78 43.82"/>
    <path fill="#404040" d="M43.78 43.82 L86.77 88.42 L87.32 87.89 L43.78 43.82"/>
    <path fill="#BFBFBF" d="M43.78 43.82 L0.79 -0.79 L0.24 -0.25 L43.78 43.82"/>
    <path fill="#3F3F3F" d="M43.78 43.82 L87.32 87.89 L87.86 87.35 L43.78 43.82"/>
    <path fill="silver" d="M43.78 43.82 L0.24 -0.25 L-0.3 0.29 L43.78 43.82"/>
    <path fill="#3E3E3E" d="M43.78 43.82 L87.86 87.35 L88.39 86.8 L43.78 43.82"/>
    <path fill="#C1C1C1" d="M43.78 43.82 L-0.3 0.29 L-0.83 0.83 L43.78 43.82"/>
    <path fill="#3D3D3D" d="M43.78 43.82 L88.39 86.8 L88.92 86.25 L43.78 43.82"/>
    <path fill="#C2C2C2" d="M43.78 43.82 L-0.83 0.83 L-1.36 1.39 L43.78 43.82"/>
    <path fill="#3C3C3C" d="M43.78 43.82 L88.92 86.25 L89.44 85.69 L43.78 43.82"/>
    <path fill="#C3C3C3" d="M43.78 43.82 L-1.36 1.39 L-1.88 1.95 L43.78 43.82"/>
    <path fill="#3B3B3B" d="M43.78 43.82 L89.44 85.69 L89.95 85.12 L43.78 43.82"/>
    <path fill="#C4C4C4" d="M43.78 43.82 L-1.88 1.95 L-2.39 2.51 L43.78 43.82"/>
    <path fill="#3A3A3A" d="M43.78 43.82 L89.95 85.12 L90.46 84.55 L43.78 43.82"/>
    <path fill="#C5C5C5" d="M43.78 43.82 L-2.39 2.51 L-2.89 3.08 L43.78 43.82"/>
    <path fill="#393939" d="M43.78 43.82 L90.46 84.55 L90.95 83.97 L43.78 43.82"/>
    <path fill="#C6C6C6" d="M43.78 43.82 L-2.89 3.08 L-3.39 3.66 L43.78 43.82"/>
    <path fill="#383838" d="M43.78 43.82 L90.95 83.97 L91.45 83.39 L43.78 43.82"/>
    <path fill="#C7C7C7" d="M43.78 43.82 L-3.39 3.66 L-3.88 4.25 L43.78 43.82"/>
    <path fill="#373737" d="M43.78 43.82 L91.45 83.39 L91.93 82.8 L43.78 43.82"/>
    <path fill="#C8C8C8" d="M43.78 43.82 L-3.88 4.25 L-4.37 4.84 L43.78 43.82"/>
    <path fill="#363636" d="M43.78 43.82 L91.93 82.8 L92.41 82.2 L43.78 43.82"/>
    <path fill="#C9C9C9" d="M43.78 43.82 L-4.37 4.84 L-4.84 5.43 L43.78 43.82"/>
    <path fill="#353535" d="M43.78 43.82 L92.41 82.2 L92.87 81.6 L43.78 43.82"/>
    <path fill="#CACACA" d="M43.78 43.82 L-4.84 5.43 L-5.31 6.03 L43.78 43.82"/>
    <path fill="#343434" d="M43.78 43.82 L92.87 81.6 L93.34 80.99 L43.78 43.82"/>
    <path fill="#CBCBCB" d="M43.78 43.82 L-5.31 6.03 L-5.77 6.64 L43.78 43.82"/>
    <path fill="#333333" d="M43.78 43.82 L93.34 80.99 L93.79 80.38 L43.78 43.82"/>
    <path fill="#CCCCCC" d="M43.78 43.82 L-5.77 6.64 L-6.23 7.26 L43.78 43.82"/>
    <path fill="#323232" d="M43.78 43.82 L93.79 80.38 L94.24 79.76 L43.78 43.82"/>
    <path fill="#CDCDCD" d="M43.78 43.82 L-6.23 7.26 L-6.68 7.87 L43.78 43.82"/>
    <path fill="#313131" d="M43.78 43.82 L94.24 79.76 L94.68 79.13 L43.78 43.82"/>
    <path fill="#CECECE" d="M43.78 43.82 L-6.68 7.87 L-7.11 8.5 L43.78 43.82"/>
    <path fill="#303030" d="M43.78 43.82 L94.68 79.13 L95.11 78.5 L43.78 43.82"/>
    <path fill="#CFCFCF" d="M43.78 43.82 L-7.11 8.5 L-7.55 9.13 L43.78 43.82"/>
    <path fill="#2F2F2F" d="M43.78 43.82 L95.11 78.5 L95.53 77.87 L43.78 43.82"/>
    <path fill="#D0D0D0" d="M43.78 43.82 L-7.55 9.13 L-7.97 9.76 L43.78 43.82"/>
    <path fill="#2E2E2E" d="M43.78 43.82 L95.53 77.87 L95.95 77.23 L43.78 43.82"/>
    <path fill="#D1D1D1" d="M43.78 43.82 L-7.97 9.76 L-8.38 10.4 L43.78 43.82"/>
    <path fill="#2D2D2D" d="M43.78 43.82 L95.95 77.23 L96.35 76.58 L43.78 43.82"/>
    <path fill="#D2D2D2" d="M43.78 43.82 L-8.38 10.4 L-8.79 11.05 L43.78 43.82"/>
    <path fill="#2C2C2C" d="M43.78 43.82 L96.35 76.58 L96.75 75.93 L43.78 43.82"/>
    <path fill="lightgrey" d="M43.78 43.82 L-8.79 11.05 L-9.19 11.7 L43.78 43.82"/>
    <path fill="#2B2B2B" d="M43.78 43.82 L96.75 75.93 L97.15 75.28 L43.78 43.82"/>
    <path fill="#D4D4D4" d="M43.78 43.82 L-9.19 11.7 L-9.58 12.35 L43.78 43.82"/>
    <path fill="#2A2A2A" d="M43.78 43.82 L97.15 75.28 L97.53 74.62 L43.78 43.82"/>
    <path fill="#D5D5D5" d="M43.78 43.82 L-9.58 12.35 L-9.97 13.01 L43.78 43.82"/>
    <path fill="#292929" d="M43.78 43.82 L97.53 74.62 L97.9 73.96 L43.78 43.82"/>
    <path fill="#D6D6D6" d="M43.78 43.82 L-9.97 13.01 L-10.34 13.68 L43.78 43.82"/>
    <path fill="#282828" d="M43.78 43.82 L97.9 73.96 L98.27 73.29 L43.78 43.82"/>
    <path fill="#D7D7D7" d="M43.78 43.82 L-10.34 13.68 L-10.71 14.35 L43.78 43.82"/>
    <path fill="#272727" d="M43.78 43.82 L98.27 73.29 L98.63 72.61 L43.78 43.82"/>
    <path fill="#D8D8D8" d="M43.78 43.82 L-10.71 14.35 L-11.07 15.02 L43.78 43.82"/>
    <path fill="#262626" d="M43.78 43.82 L98.63 72.61 L98.98 71.93 L43.78 43.82"/>
    <path fill="#D9D9D9" d="M43.78 43.82 L-11.07 15.02 L-11.42 15.7 L43.78 43.82"/>
    <path fill="#252525" d="M43.78 43.82 L98.98 71.93 L99.32 71.25 L43.78 43.82"/>
    <path fill="#DADADA" d="M43.78 43.82 L-11.42 15.7 L-11.76 16.38 L43.78 43.82"/>
    <path fill="#242424" d="M43.78 43.82 L99.32 71.25 L99.66 70.57 L43.78 43.82"/>
    <path fill="#DBDBDB" d="M43.78 43.82 L-11.76 16.38 L-12.1 17.07 L43.78 43.82"/>
    <path fill="#232323" d="M43.78 43.82 L99.66 70.57 L99.98 69.88 L43.78 43.82"/>
    <path fill="gainsboro" d="M43.78 43.82 L-12.1 17.07 L-12.42 17.76 L43.78 43.82"/>
    <path fill="#222222" d="M43.78 43.82 L99.98 69.88 L100.3 69.18 L43.78 43.82"/>
    <path fill="#DDDDDD" d="M43.78 43.82 L-12.42 17.76 L-12.74 18.45 L43.78 43.82"/>
    <path fill="#212121" d="M43.78 43.82 L100.3 69.18 L100.61 68.48 L43.78 43.82"/>
    <path fill="#DEDEDE" d="M43.78 43.82 L-12.74 18.45 L-13.05 19.15 L43.78 43.82"/>
    <path fill="#202020" d="M43.78 43.82 L100.61 68.48 L100.91 67.78 L43.78 43.82"/>
    <path fill="#DFDFDF" d="M43.78 43.82 L-13.05 19.15 L-13.34 19.85 L43.78 43.82"/>
    <path fill="#1F1F1F" d="M43.78 43.82 L100.91 67.78 L101.2 67.08 L43.78 43.82"/>
    <path fill="#E0E0E0" d="M43.78 43.82 L-13.34 19.85 L-13.64 20.56 L43.78 43.82"/>
    <path fill="#1E1E1E" d="M43.78 43.82 L101.2 67.08 L101.48 66.37 L43.78 43.82"/>
    <path fill="#E1E1E1" d="M43.78 43.82 L-13.64 20.56 L-13.92 21.27 L43.78 43.82"/>
    <path fill="#1D1D1D" d="M43.78 43.82 L101.48 66.37 L101.75 65.65 L43.78 43.82"/>
    <path fill="#E2E2E2" d="M43.78 43.82 L-13.92 21.27 L-14.19 21.98 L43.78 43.82"/>
    <path fill="#1C1C1C" d="M43.78 43.82 L101.75 65.65 L102.02 64.94 L43.78 43.82"/>
    <path fill="#E3E3E3" d="M43.78 43.82 L-14.19 21.98 L-14.46 22.69 L43.78 43.82"/>
    <path fill="#1B1B1B" d="M43.78 43.82 L102.02 64.94 L102.27 64.22 L43.78 43.82"/>
    <path fill="#E4E4E4" d="M43.78 43.82 L-14.46 22.69 L-14.71 23.41 L43.78 43.82"/>
    <path fill="#1A1A1A" d="M43.78 43.82 L102.27 64.22 L102.52 63.5 L43.78 43.82"/>
    <path fill="#E5E5E5" d="M43.78 43.82 L-14.71 23.41 L-14.96 24.14 L43.78 43.82"/>
    <path fill="#191919" d="M43.78 43.82 L102.52 63.5 L102.76 62.77 L43.78 43.82"/>
    <path fill="#E6E6E6" d="M43.78 43.82 L-14.96 24.14 L-15.2 24.86 L43.78 43.82"/>
    <path fill="#181818" d="M43.78 43.82 L102.76 62.77 L102.99 62.04 L43.78 43.82"/>
    <path fill="#E7E7E7" d="M43.78 43.82 L-15.2 24.86 L-15.43 25.59 L43.78 43.82"/>
    <path fill="#171717" d="M43.78 43.82 L102.99 62.04 L103.21 61.31 L43.78 43.82"/>
    <path fill="#E8E8E8" d="M43.78 43.82 L-15.43 25.59 L-15.65 26.32 L43.78 43.82"/>
    <path fill="#161616" d="M43.78 43.82 L103.21 61.31 L103.42 60.58 L43.78 43.82"/>
    <path fill="#E9E9E9" d="M43.78 43.82 L-15.65 26.32 L-15.86 27.05 L43.78 43.82"/>
    <path fill="#151515" d="M43.78 43.82 L103.42 60.58 L103.62 59.84 L43.78 43.82"/>
    <path fill="#EAEAEA" d="M43.78 43.82 L-15.86 27.05 L-16.06 27.79 L43.78 43.82"/>
    <path fill="#141414" d="M43.78 43.82 L103.62 59.84 L103.81 59.1 L43.78 43.82"/>
    <path fill="#EBEBEB" d="M43.78 43.82 L-16.06 27.79 L-16.25 28.53 L43.78 43.82"/>
    <path fill="#131313" d="M43.78 43.82 L103.81 59.1 L104 58.36 L43.78 43.82"/>
    <path fill="#ECECEC" d="M43.78 43.82 L-16.25 28.53 L-16.44 29.27 L43.78 43.82"/>
    <path fill="#121212" d="M43.78 43.82 L104 58.36 L104.17 57.62 L43.78 43.82"/>
    <path fill="#EDEDED" d="M43.78 43.82 L-16.44 29.27 L-16.61 30.01 L43.78 43.82"/>
    <path fill="#111111" d="M43.78 43.82 L104.17 57.62 L104.34 56.88 L43.78 43.82"/>
    <path fill="#EEEEEE" d="M43.78 43.82 L-16.61 30.01 L-16.78 30.76 L43.78 43.82"/>
    <path fill="#101010" d="M43.78 43.82 L104.34 56.88 L104.49 56.13 L43.78 43.82"/>
    <path fill="#EFEFEF" d="M43.78 43.82 L-16.78 30.76 L-16.93 31.5 L43.78 43.82"/>
    <path fill="#0F0F0F" d="M43.78 43.82 L104.49 56.13 L104.64 55.38 L43.78 43.82"/>
    <path fill="#F0F0F0" d="M43.78 43.82 L-16.93 31.5 L-17.08 32.25 L43.78 43.82"/>
    <path fill="#0E0E0E" d="M43.78 43.82 L104.64 55.38 L104.78 54.63 L43.78 43.82"/>
    <path fill="#F1F1F1" d="M43.78 43.82 L-17.08 32.25 L-17.22 33 L43.78 43.82"/>
    <path fill="#0D0D0D" d="M43.78 43.82 L104.78 54.63 L104.91 53.88 L43.78 43.82"/>
    <path fill="#F2F2F2" d="M43.78 43.82 L-17.22 33 L-17.35 33.76 L43.78 43.82"/>
    <path fill="#0C0C0C" d="M43.78 43.82 L104.91 53.88 L105.03 53.12 L43.78 43.82"/>
    <path fill="#F3F3F3" d="M43.78 43.82 L-17.35 33.76 L-17.46 34.51 L43.78 43.82"/>
    <path fill="#0B0B0B" d="M43.78 43.82 L105.03 53.12 L105.14 52.37 L43.78 43.82"/>
    <path fill="#F4F4F4" d="M43.78 43.82 L-17.46 34.51 L-17.57 35.26 L43.78 43.82"/>
    <path fill="#0A0A0A" d="M43.78 43.82 L105.14 52.37 L105.24 51.61 L43.78 43.82"/>
    <path fill="whitesmoke" d="M43.78 43.82 L-17.57 35.26 L-17.68 36.02 L43.78 43.82"/>
    <path fill="#090909" d="M43.78 43.82 L105.24 51.61 L105.33 50.85 L43.78 43.82"/>
    <path fill="#F6F6F6" d="M43.78 43.82 L-17.68 36.02 L-17.77 36.78 L43.78 43.82"/>
    <path fill="#080808" d="M43.78 43.82 L105.33 50.85 L105.41 50.1 L43.78 43.82"/>
    <path fill="#F7F7F7" d="M43.78 43.82 L-17.77 36.78 L-17.85 37.54 L43.78 43.82"/>
    <path fill="#070707" d="M43.78 43.82 L105.41 50.1 L105.48 49.34 L43.78 43.82"/>
    <path fill="#F8F8F8" d="M43.78 43.82 L-17.85 37.54 L-17.92 38.3 L43.78 43.82"/>
    <path fill="#060606" d="M43.78 43.82 L105.48 49.34 L105.55 48.57 L43.78 43.82"/>
    <path fill="#F9F9F9" d="M43.78 43.82 L-17.92 38.3 L-17.98 39.06 L43.78 43.82"/>
    <path fill="#050505" d="M43.78 43.82 L105.55 48.57 L105.6 47.81 L43.78 43.82"/>
    <path fill="#FAFAFA" d="M43.78 43.82 L-17.98 39.06 L-18.04 39.82 L43.78 43.82"/>
    <path fill="#040404" d="M43.78 43.82 L105.6 47.81 L105.65 47.05 L43.78 43.82"/>
    <path fill="#FBFBFB" d="M43.78 43.82 L-18.04 39.82 L-18.08 40.58 L43.78 43.82"/>
    <path fill="#030303" d="M43.78 43.82 L105.65 47.05 L105.68 46.29 L43.78 43.82"/>
    <path fill="#FCFCFC" d="M43.78 43.82 L-18.08 40.58 L-18.12 41.34 L43.78 43.82"/>
    <path fill="#020202" d="M43.78 43.82 L105.68 46.29 L105.71 45.53 L43.78 43.82"/>
    <path fill="#FDFDFD" d="M43.78 43.82 L-18.12 41.34 L-18.14 42.11 L43.78 43.82"/>
    <path fill="#010101" d="M43.78 43.82 L105.71 45.53 L105.72 44.76 L43.78 43.82"/>
    <path fill="#FEFEFE" d="M43.78 43.82 L-18.14 42.11 L-18.16 42.87 L43.78 43.82"/>
   </mask>
 </defs>
 <g id="Layer_x0020_1">
  <metadata id="CorelCorpID_0Corel-Layer"/>
  <path class="fil0" style="mask:url(#id0)" d="M87.56 46.37c-1.32,23.01 -20.4,41.26 -43.74,41.26 -24.2,0 -43.82,-19.62 -43.82,-43.82 0,-24.04 19.37,-43.56 43.36,-43.81l0 9.68c-18.64,0.25 -33.68,15.43 -33.68,34.13 0,18.86 15.29,34.14 34.14,34.14 17.99,0 32.73,-13.92 34.04,-31.58l9.7 0z"/>
 </g>
</svg>
